<?xml version="1.0" encoding="UTF-8"?>
<svg version="1.1" xmlns="http://www.w3.org/2000/svg" width="528" height="468">
<path d="M0 0 C4.6773121 -0.0498443 9.35446584 -0.08592757 14.03198242 -0.10986328 C15.61957496 -0.11985321 17.20714943 -0.1334498 18.79467773 -0.15087891 C34.36809671 -0.31743954 34.36809671 -0.31743954 41.04125977 1.50537109 C44.71063413 2.43197616 48.48696106 2.5770356 52.25 2.875 C62.98975798 3.82358984 73.45126114 5.81823273 84 8 C84 8.66 84 9.32 84 10 C84.89460938 10.37511719 85.78921875 10.75023437 86.7109375 11.13671875 C93.94057584 14.19659766 101.01869686 17.40175986 108 21 C109.40572266 21.69029297 109.40572266 21.69029297 110.83984375 22.39453125 C114.3107404 24.15786688 117.69070827 26.05656208 121.0625 28 C121.66126953 28.34289062 122.26003906 28.68578125 122.87695312 29.0390625 C125.42912599 30.50383641 127.9693927 31.98129821 130.48046875 33.515625 C133.04582829 35.02699961 135.66806001 36.39426439 138.31689453 37.75268555 C145.09086204 41.24746419 151.25717391 44.92696357 157 50 C157.81791016 50.71349609 157.81791016 50.71349609 158.65234375 51.44140625 C160.0625 52.75 160.0625 52.75 162 55 C162 55.99 162 56.98 162 58 C162.55171875 58.24234375 163.1034375 58.4846875 163.671875 58.734375 C166.50790919 60.27611171 168.77842001 62.17387281 171.25 64.25 C174.45835115 66.93922802 177.63191097 69.44933092 181.125 71.75 C186.76594752 75.89979541 190.25952772 82.19462017 194 88 C197.9842249 94.32715991 197.9842249 94.32715991 202.875 99.9375 C203.57625 100.618125 204.2775 101.29875 205 102 C205 102.66 205 103.32 205 104 C205.66 104 206.32 104 207 104 C207.226875 105.051875 207.45375 106.10375 207.6875 107.1875 C208.84789381 111.24082003 210.9744972 113.0417306 214 116 C225.06359305 130.38555964 232.22741314 148.64513869 237 166 C237.74404254 168.37687309 238.4937358 170.75198726 239.25 173.125 C240.50120609 177.07347824 241.39185787 180.90112206 242 185 C247.52417129 185.93745479 252.83694707 186.1320925 258.43359375 186.09765625 C259.31153091 186.0962413 260.18946808 186.09482635 261.0940094 186.09336853 C263.87520882 186.08780821 266.65632526 186.07526321 269.4375 186.0625 C271.33268112 186.05747987 273.22786352 186.05291786 275.12304688 186.04882812 C279.74872948 186.0378518 284.37435071 186.02061482 289 186 C289.66738624 190.76383447 290.11460398 195.21254086 289.87890625 200.03125 C289.80639648 201.61679687 289.80639648 201.61679687 289.73242188 203.234375 C289.67634766 204.31203125 289.62027344 205.3896875 289.5625 206.5 C289.51029297 207.60859375 289.45808594 208.7171875 289.40429688 209.859375 C289.27562355 212.57321238 289.13865368 215.28665422 289 218 C283.72 218 278.44 218 273 218 C273 215.69 273 213.38 273 211 C272.34 211 271.68 211 271 211 C271.309375 210.071875 271.309375 210.071875 271.625 209.125 C271.74875 208.42375 271.8725 207.7225 272 207 C271.34 206.34 270.68 205.68 270 205 C269.34 205.66 268.68 206.32 268 207 C268.66 208.32 269.32 209.64 270 211 C268.35 210.34 266.7 209.68 265 209 C264.34 209.99 263.68 210.98 263 212 C262.34 212 261.68 212 261 212 C261 212.66 261 213.32 261 214 C260.34 214 259.68 214 259 214 C259 214.66 259 215.32 259 216 C257.515 216.99 257.515 216.99 256 218 C255.27617533 220.05925139 255.27617533 220.05925139 255 222 C254.34 222 253.68 222 253 222 C253 222.66 253 223.32 253 224 C253.99 224 254.98 224 256 224 C256.66 224 257.32 224 258 224 C257.67 227.3 257.34 230.6 257 234 C250.1640625 234.9765625 250.1640625 234.9765625 248 235 C247.34 234.34 246.68 233.68 246 233 C246.76209768 236.09958535 246.76209768 236.09958535 249.125 237.9375 C249.74375 238.618125 250.3625 239.29875 251 240 C250.75 242.25 250.75 242.25 250 244 C252.68841859 246.25245881 254.64641875 247.88213958 258 249 C258.35122911 250.32873135 258.68198063 251.66293135 259 253 C260.42025876 254.87888458 260.42025876 254.87888458 262.23828125 256.63671875 C262.89376953 257.29607422 263.54925781 257.95542969 264.22460938 258.63476562 C264.91361328 259.31216797 265.60261719 259.98957031 266.3125 260.6875 C266.98990234 261.37650391 267.66730469 262.06550781 268.36523438 262.77539062 C269.02458984 263.43087891 269.68394531 264.08636719 270.36328125 264.76171875 C270.96438721 265.35944092 271.56549316 265.95716309 272.18481445 266.57299805 C273.91717576 268.14016017 273.91717576 268.14016017 276.16479492 268.51489258 C276.7704126 268.67497803 277.37603027 268.83506348 278 269 C278.33 269.99 278.66 270.98 279 272 C279.66 272 280.32 272 281 272 C281 270.02 281 268.04 281 266 C283.64 266 286.28 266 289 266 C289.33 270.95 289.66 275.9 290 281 C297.14142136 282.18856181 297.14142136 282.18856181 305 282 C305 287.28 305 292.56 305 298 C274.31 298.495 274.31 298.495 243 299 C242.67 303.62 242.34 308.24 242 313 C240.16341016 319.65763817 239.13467898 322.52432015 233.3125 326.125 C229.71852838 328.55431306 229.08653881 329.55939883 228.23046875 333.91796875 C228.01428428 336.79978208 227.97980017 339.66186314 228 342.55078125 C228 346 228 346 227 348 C226.01 348 225.02 348 224 348 C223.731875 348.928125 223.46375 349.85625 223.1875 350.8125 C221.52064877 355.28667962 219.83733941 356.44735599 215.875 359.0625 C212.94935958 360.69145453 212.94935958 360.69145453 212 363 C211.34 363 210.68 363 210 363 C209.67 363.66 209.34 364.32 209 365 C207.2466739 366.34077878 205.4253733 367.55015893 203.59375 368.78125 C201.85350389 369.92729614 201.85350389 369.92729614 201 372 C200.34 372 199.68 372 199 372 C198.731875 372.598125 198.46375 373.19625 198.1875 373.8125 C196.99427577 376.01054464 195.75321129 377.24678871 194 379 C193.56042969 379.74765625 193.12085938 380.4953125 192.66796875 381.265625 C189.63644048 386.23534348 185.73325795 390.54760526 182 395 C181.07767578 396.12921875 181.07767578 396.12921875 180.13671875 397.28125 C176.76835418 401.30780075 173.32426754 404.50553411 168.9921875 407.48046875 C166.4224271 409.4405409 164.26648448 411.69658021 162 414 C160.00130118 415.92004942 157.97251551 417.80607057 155.9375 419.6875 C155.1630957 420.41549805 155.1630957 420.41549805 154.37304688 421.15820312 C151.71675181 423.61146926 149.28732033 425.50576349 146 427 C144.86455646 428.13544354 143.73167429 429.27366705 142.6171875 430.4296875 C140.49986502 432.48563832 138.27326105 434.36798269 136 436.25 C135.175 436.93578125 134.35 437.6215625 133.5 438.328125 C130.91129329 440.05932261 129.06386194 440.62795962 126 441 C126 441.99 126 442.98 126 444 C118.32584202 447.88140982 110.64295944 451.74659673 102.875 455.4375 C101.88242187 455.91058594 100.88984375 456.38367188 99.8671875 456.87109375 C97 458 97 458 93.6953125 458.53515625 C92.80585938 458.68855469 91.91640625 458.84195312 91 459 C90.67 459.66 90.34 460.32 90 461 C88.68 461 87.36 461 86 461 C84.51435222 461.37285845 83.04255438 461.80359274 81.5859375 462.27734375 C80.74160156 462.54353516 79.89726562 462.80972656 79.02734375 463.08398438 C77.28148876 463.64579486 75.53666303 464.21081561 73.79296875 464.77929688 C72.94089844 465.04677734 72.08882813 465.31425781 71.2109375 465.58984375 C70.45087402 465.83597412 69.69081055 466.08210449 68.90771484 466.33569336 C61.36861194 468.05810302 53.65382032 468.15086058 45.953125 468.1328125 C45.02062927 468.13376923 44.08813354 468.13472595 43.12738037 468.13571167 C41.16092867 468.13638799 39.19447467 468.13457221 37.22802734 468.13037109 C34.29909907 468.12508855 31.37032937 468.13029676 28.44140625 468.13671875 C15.99818214 468.14084141 3.60827439 467.75778993 -8.81718445 467.10627747 C-11.5854622 466.97149487 -14.35472756 466.89439785 -17.125 466.8125 C-25.98992483 466.02536694 -34.58062508 462.73743067 -43 460 C-44.19580688 459.62983765 -44.19580688 459.62983765 -45.41577148 459.25219727 C-49.88868652 457.83800449 -53.70074833 456.21923281 -57.6875 453.6875 C-66.22427248 448.54578665 -74.98391867 444.09174017 -85 443 C-85 442.34 -85 441.68 -85 441 C-85.680625 440.79375 -86.36125 440.5875 -87.0625 440.375 C-92.35976253 437.8954303 -96.33794251 434.51587057 -99.0625 429.3125 C-102.246489 423.73783913 -107.57030746 420.37515356 -112.625 416.61328125 C-115.68699733 414.30853826 -118.35221623 411.77815003 -121 409 C-125.48721685 404.35156578 -129.85811697 400.13177136 -135.23828125 396.51953125 C-137.45144522 394.61061599 -138.56325725 392.53698522 -140 390 C-141.1269924 388.40320114 -142.27445605 386.82073462 -143.4375 385.25 C-144.14390625 384.27804687 -144.8503125 383.30609375 -145.578125 382.3046875 C-146.81732389 380.60465507 -148.06534034 378.91356516 -149.33398438 377.23535156 C-158.32058874 365.34721455 -165.15770888 352.70438944 -171.77001953 339.36572266 C-173.03069843 336.83658916 -173.03069843 336.83658916 -175 334 C-175 333.01 -175 332.02 -175 331 C-175.58652344 330.979375 -176.17304688 330.95875 -176.77734375 330.9375 C-180.28850523 329.456518 -181.13711307 326.31992888 -182.5625 323 C-182.86696045 322.31808594 -183.1714209 321.63617188 -183.48510742 320.93359375 C-185.63553751 316.04482952 -187.5071988 311.13019003 -189 306 C-189.391875 304.845 -189.78375 303.69 -190.1875 302.5 C-191.17277804 298.25572535 -191.1768467 294.33274405 -191 290 C-197.94940622 286.88078685 -197.94940622 286.88078685 -205 284 C-205.73089844 283.65453125 -206.46179688 283.3090625 -207.21484375 282.953125 C-210.5571841 281.80932269 -213.28855894 281.80380927 -216.8125 281.875 C-217.97394531 281.89304687 -219.13539063 281.91109375 -220.33203125 281.9296875 C-221.21246094 281.95289063 -222.09289062 281.97609375 -223 282 C-223 279.36 -223 276.72 -223 274 C-221.35 274 -219.7 274 -218 274 C-218.99 271.03 -219.98 268.06 -221 265 C-219.68 265 -218.36 265 -217 265 C-217 262.69 -217 260.38 -217 258 C-216.34 258 -215.68 258 -215 258 C-215.33 255.03 -215.66 252.06 -216 249 C-214.68 249.33 -213.36 249.66 -212 250 C-212 249.34 -212 248.68 -212 248 C-208.05272412 247.82057837 -205.4019487 247.90649311 -202 250 C-202.26393501 246.56769552 -202.26393501 246.56769552 -203 243 C-205.81509993 240.7226499 -205.81509993 240.7226499 -209 241 C-212 237.66666667 -212 237.66666667 -212 235 C-212.99 234.34 -213.98 233.68 -215 233 C-218.14988348 226.54319273 -221.33268752 216.73603839 -219 209.75 C-218.04296875 207.76953125 -218.04296875 207.76953125 -217 206 C-216.1646875 204.2365625 -216.1646875 204.2365625 -215.3125 202.4375 C-214.6628125 201.2309375 -214.6628125 201.2309375 -214 200 C-213.34 200 -212.68 200 -212 200 C-211.95746094 199.25363281 -211.91492188 198.50726563 -211.87109375 197.73828125 C-210.63211236 193.84354603 -208.59090914 193.11323103 -205.0625 191.1875 C-203.98097656 190.58292969 -202.89945313 189.97835937 -201.78515625 189.35546875 C-199 188 -199 188 -197 188 C-196.67 187.34 -196.34 186.68 -196 186 C-195.33226562 185.73445312 -194.66453125 185.46890625 -193.9765625 185.1953125 C-193.32429688 184.80085937 -192.67203125 184.40640625 -192 184 C-191.36150514 181.66388332 -191.36150514 181.66388332 -191.375 178.875 C-191.10364096 173.67500348 -190.68034624 168.54318453 -190.0625 163.375 C-189.98757324 162.67616699 -189.91264648 161.97733398 -189.83544922 161.25732422 C-189.23325315 156.23325315 -189.23325315 156.23325315 -187 154 C-185.68 154 -184.36 154 -183 154 C-183 152.68 -183 151.36 -183 150 C-183.66 150 -184.32 150 -185 150 C-185 146.04 -185 142.08 -185 138 C-184.01 138 -183.02 138 -182 138 C-182 137.01 -182 136.02 -182 135 C-180.02 135.33 -178.04 135.66 -176 136 C-174.89324381 133.8137775 -173.78955622 131.62609052 -172.6875 129.4375 C-172.37876953 128.82841797 -172.07003906 128.21933594 -171.75195312 127.59179688 C-170.17898895 124.46242604 -168.6896338 121.32701721 -167.33203125 118.09765625 C-166 115 -166 115 -165 114 C-164.76712992 112.31816052 -164.58735834 110.6287584 -164.4375 108.9375 C-164.35371094 108.01839844 -164.26992187 107.09929687 -164.18359375 106.15234375 C-164.09271484 105.08693359 -164.09271484 105.08693359 -164 104 C-163.67 104.66 -163.34 105.32 -163 106 C-161.68 106 -160.36 106 -159 106 C-159.2784375 105.071875 -159.2784375 105.071875 -159.5625 104.125 C-160 102 -160 102 -159 100 C-159.99 99.67 -160.98 99.34 -162 99 C-162 96.03 -162 93.06 -162 90 C-160.35 90 -158.7 90 -157 90 C-157 89.34 -157 88.68 -157 88 C-155.41676312 87.972807 -153.83338938 87.95351694 -152.25 87.9375 C-151.36828125 87.92589844 -150.4865625 87.91429688 -149.578125 87.90234375 C-147.2181162 87.99173802 -145.25501476 88.33087179 -143 89 C-143 86.36 -143 83.72 -143 81 C-141.02 80.34 -139.04 79.68 -137 79 C-137 77.02 -137 75.04 -137 73 C-134.03 73.33 -131.06 73.66 -128 74 C-127.95758277 71.66705225 -127.95907063 69.33297433 -128 67 C-128.33 66.67 -128.66 66.34 -129 66 C-129.14115161 63.32941149 -129.04247107 60.67567762 -129 58 C-128.34 58 -127.68 58 -127 58 C-127 57.34 -127 56.68 -127 56 C-121.16524985 55.14669662 -116.55139349 54.51648186 -111 57 C-111.020625 56.030625 -111.04125 55.06125 -111.0625 54.0625 C-111 51 -111 51 -110 50 C-107.66702567 49.95907063 -105.33294775 49.95758277 -103 50 C-103 48.02 -103 46.04 -103 44 C-100.09399739 42.74335022 -98.20395416 42 -95 42 C-95.020625 40.865625 -95.04125 39.73125 -95.0625 38.5625 C-95 35 -95 35 -94 34 C-91.46950598 33.92686433 -88.96695163 33.90752473 -86.4375 33.9375 C-85.72658203 33.94201172 -85.01566406 33.94652344 -84.28320312 33.95117188 C-82.52209987 33.96299136 -80.76103964 33.98092737 -79 34 C-78.9175 33.05125 -78.835 32.1025 -78.75 31.125 C-78 28 -78 28 -76.265625 26.6328125 C-73.65558558 25.90380149 -71.45721756 25.80375743 -68.75 25.875 C-67.85796875 25.89304687 -66.9659375 25.91109375 -66.046875 25.9296875 C-65.03367188 25.96449219 -65.03367188 25.96449219 -64 26 C-64 25.34 -64 24.68 -64 24 C-65.32 23.67 -66.64 23.34 -68 23 C-68 22.34 -68 21.68 -68 21 C-67.01 21 -66.02 21 -65 21 C-65 20.34 -65 19.68 -65 19 C-62.03 18.505 -62.03 18.505 -59 18 C-58.67 17.01 -58.34 16.02 -58 15 C-57.01 15.495 -57.01 15.495 -56 16 C-54.46331135 16.22467831 -52.92031946 16.40796805 -51.375 16.5625 C-50.55773437 16.64628906 -49.74046875 16.73007812 -48.8984375 16.81640625 C-48.27195313 16.87699219 -47.64546875 16.93757813 -47 17 C-46.67 15.68 -46.34 14.36 -46 13 C-45.13955078 12.88785156 -45.13955078 12.88785156 -44.26171875 12.7734375 C-36.7982519 11.61824233 -29.79457654 9.47216291 -22.6394043 7.12060547 C-16.22609711 5.01811891 -10.81426237 3.86638701 -4 4 C-4 3.34 -4 2.68 -4 2 C-2.68 2 -1.36 2 0 2 C0 1.34 0 0.68 0 0 Z M280 193 C279.67 193.99 279.34 194.98 279 196 C279.66 196 280.32 196 281 196 C280.67 195.01 280.34 194.02 280 193 Z M273 200 C272.34 201.32 271.68 202.64 271 204 C271.66 204 272.32 204 273 204 C273 203.34 273 202.68 273 202 C273.66 202 274.32 202 275 202 C275 201.34 275 200.68 275 200 C274.34 200 273.68 200 273 200 Z M278 201 C279 203 279 203 279 203 Z M273 204 C274 206 274 206 274 206 Z M249 224 C248.67 224.99 248.34 225.98 248 227 C247.01 227.495 247.01 227.495 246 228 C246 228.66 246 229.32 246 230 C246.99 229.67 247.98 229.34 249 229 C249 228.01 249 227.02 249 226 C249.66 226 250.32 226 251 226 C251 225.34 251 224.68 251 224 C250.34 224 249.68 224 249 224 Z M249 230 C248.67 230.99 248.34 231.98 248 233 C248.66 233 249.32 233 250 233 C249.67 232.01 249.34 231.02 249 230 Z M-214 251 C-213 254 -213 254 -213 254 Z M240 273 C241 275 241 275 241 275 Z M283 274 C283 277 283 277 283 277 Z M241 276 C237.85014271 281.42475422 239.4178853 282.88048386 241 290 C247.27 290 253.54 290 260 290 C260 289.34 260 288.68 260 288 C259.360625 287.87625 258.72125 287.7525 258.0625 287.625 C257.381875 287.41875 256.70125 287.2125 256 287 C255.67 286.34 255.34 285.68 255 285 C254.01 285.495 254.01 285.495 253 286 C252.67 285.01 252.34 284.02 252 283 C251.01 283 250.02 283 249 283 C248.34 281.68 247.68 280.36 247 279 C246.34 279 245.68 279 245 279 C244.67 278.01 244.34 277.02 244 276 C243.01 276 242.02 276 241 276 Z M262 287 C262.99 288.485 262.99 288.485 264 290 C264 289.01 264 288.02 264 287 C263.34 287 262.68 287 262 287 Z M266 287 C266 287.33 266 287.66 266 288 C273.59 288 281.18 288 289 288 C289 287.67 289 287.34 289 287 C281.41 287 273.82 287 266 287 Z M290 287 C290 287.66 290 288.32 290 289 C290.66 288.67 291.32 288.34 292 288 C291.34 287.67 290.68 287.34 290 287 Z M273 289 C273 289.33 273 289.66 273 290 C275.64 290 278.28 290 281 290 C281 289.67 281 289.34 281 289 C278.36 289 275.72 289 273 289 Z M264 290 C264 290.33 264 290.66 264 291 C266.97 291 269.94 291 273 291 C273 290.67 273 290.34 273 290 C270.03 290 267.06 290 264 290 Z M281 290 C281 290.33 281 290.66 281 291 C283.64 291 286.28 291 289 291 C289 290.67 289 290.34 289 290 C286.36 290 283.72 290 281 290 Z " fill="#970348" transform="translate(223,0)"/>
<path d="M0 0 C5.06623768 4.23816537 9.80038069 8.67408963 14.4375 13.375 C15.07365234 14.01566406 15.70980469 14.65632813 16.36523438 15.31640625 C17.91250332 16.87530879 19.45736492 18.43651416 21 20 C20.33484375 20.54140625 19.6696875 21.0828125 18.984375 21.640625 C16.73090719 23.84456436 16.73090719 23.84456436 16.828125 26.796875 C17.03695312 28.25867188 17.03695312 28.25867188 17.25 29.75 C17.4975 31.4825 17.745 33.215 18 35 C24.27 35 30.54 35 37 35 C37 34.34 37 33.68 37 33 C35.68 32.67 34.36 32.34 33 32 C33.33 31.34 33.66 30.68 34 30 C34.928125 30.515625 35.85625 31.03125 36.8125 31.5625 C39.92757947 33.40096246 39.92757947 33.40096246 43 32 C44.84610532 31.91760831 46.69505164 31.89256641 48.54296875 31.90234375 C49.61611328 31.90556641 50.68925781 31.90878906 51.79492188 31.91210938 C52.91447266 31.92048828 54.03402344 31.92886719 55.1875 31.9375 C56.88422852 31.94426758 56.88422852 31.94426758 58.61523438 31.95117188 C61.41020927 31.96296502 64.2050782 31.9794235 67 32 C65.88113153 29.76226306 64.64373461 28.57604122 62.83984375 26.84765625 C62.21142578 26.23599609 61.58300781 25.62433594 60.93554688 24.99414062 C59.6034426 23.70630961 58.26749277 22.42244451 56.92773438 21.14257812 C55.98704102 20.2231543 55.98704102 20.2231543 55.02734375 19.28515625 C54.44718506 18.72707275 53.86702637 18.16898926 53.26928711 17.59399414 C52 16 52 16 52 13 C53.98 13.99 53.98 13.99 56 15 C56 15.66 56 16.32 56 17 C56.66 17 57.32 17 58 17 C58 15.02 58 13.04 58 11 C60.64 11 63.28 11 66 11 C66.33 15.95 66.66 20.9 67 26 C74.14142136 27.18856181 74.14142136 27.18856181 82 27 C82 32.28 82 37.56 82 43 C51.31 43.495 51.31 43.495 20 44 C19.67 48.62 19.34 53.24 19 58 C17.16341016 64.65763817 16.13467898 67.52432015 10.3125 71.125 C6.71852838 73.55431306 6.08653881 74.55939883 5.23046875 78.91796875 C5.01428428 81.79978208 4.97980017 84.66186314 5 87.55078125 C5 91 5 91 4 93 C3.01 93 2.02 93 1 93 C0.5978125 94.3921875 0.5978125 94.3921875 0.1875 95.8125 C-1.47935123 100.28667962 -3.16266059 101.44735599 -7.125 104.0625 C-10.05064042 105.69145453 -10.05064042 105.69145453 -11 108 C-11.66 108 -12.32 108 -13 108 C-13.33 108.66 -13.66 109.32 -14 110 C-15.7533261 111.34077878 -17.5746267 112.55015893 -19.40625 113.78125 C-21.14649611 114.92729614 -21.14649611 114.92729614 -22 117 C-22.66 117 -23.32 117 -24 117 C-24.4021875 117.8971875 -24.4021875 117.8971875 -24.8125 118.8125 C-26.00572423 121.01054464 -27.24678871 122.24678871 -29 124 C-29.43957031 124.74765625 -29.87914062 125.4953125 -30.33203125 126.265625 C-33.36355952 131.23534348 -37.26674205 135.54760526 -41 140 C-41.92232422 141.12921875 -41.92232422 141.12921875 -42.86328125 142.28125 C-46.23164582 146.30780075 -49.67573246 149.50553411 -54.0078125 152.48046875 C-56.5775729 154.4405409 -58.73351552 156.69658021 -61 159 C-62.99869882 160.92004942 -65.02748449 162.80607057 -67.0625 164.6875 C-67.57876953 165.17283203 -68.09503906 165.65816406 -68.62695312 166.15820312 C-71.28324819 168.61146926 -73.71267967 170.50576349 -77 172 C-78.13544354 173.13544354 -79.26832571 174.27366705 -80.3828125 175.4296875 C-82.50013498 177.48563832 -84.72673895 179.36798269 -87 181.25 C-88.2375 182.27867187 -88.2375 182.27867187 -89.5 183.328125 C-92.08870671 185.05932261 -93.93613806 185.62795962 -97 186 C-97 186.99 -97 187.98 -97 189 C-104.67415798 192.88140982 -112.35704056 196.74659673 -120.125 200.4375 C-121.11757813 200.91058594 -122.11015625 201.38367188 -123.1328125 201.87109375 C-126 203 -126 203 -129.3046875 203.53515625 C-130.19414062 203.68855469 -131.08359375 203.84195313 -132 204 C-132.33 204.66 -132.66 205.32 -133 206 C-134.32 206 -135.64 206 -137 206 C-138.48564778 206.37285845 -139.95744562 206.80359274 -141.4140625 207.27734375 C-142.25839844 207.54353516 -143.10273438 207.80972656 -143.97265625 208.08398438 C-145.71851124 208.64579486 -147.46333697 209.21081561 -149.20703125 209.77929688 C-150.05910156 210.04677734 -150.91117187 210.31425781 -151.7890625 210.58984375 C-152.54912598 210.83597412 -153.30918945 211.08210449 -154.09228516 211.33569336 C-161.63138806 213.05810302 -169.34617968 213.15086058 -177.046875 213.1328125 C-177.97937073 213.13376923 -178.91186646 213.13472595 -179.87261963 213.13571167 C-181.83907133 213.13638799 -183.80552533 213.13457221 -185.77197266 213.13037109 C-188.70090093 213.12508855 -191.62967063 213.13029676 -194.55859375 213.13671875 C-207.00181786 213.14084141 -219.39172561 212.75778993 -231.81718445 212.10627747 C-234.5854622 211.97149487 -237.35472756 211.89439785 -240.125 211.8125 C-248.98992483 211.02536694 -257.58062508 207.73743067 -266 205 C-266.79720459 204.7532251 -267.59440918 204.5064502 -268.41577148 204.25219727 C-272.88868652 202.83800449 -276.70074833 201.21923281 -280.6875 198.6875 C-289.22427248 193.54578665 -297.98391867 189.09174017 -308 188 C-308 187.34 -308 186.68 -308 186 C-308.680625 185.79375 -309.36125 185.5875 -310.0625 185.375 C-315.35976253 182.8954303 -319.33794251 179.51587057 -322.0625 174.3125 C-325.246489 168.73783913 -330.57030746 165.37515356 -335.625 161.61328125 C-338.68699733 159.30853826 -341.35221623 156.77815003 -344 154 C-348.48721685 149.35156578 -352.85811697 145.13177136 -358.23828125 141.51953125 C-360.45144522 139.61061599 -361.56325725 137.53698522 -363 135 C-364.1269924 133.40320114 -365.27445605 131.82073462 -366.4375 130.25 C-367.14390625 129.27804687 -367.8503125 128.30609375 -368.578125 127.3046875 C-369.81732389 125.60465507 -371.06534034 123.91356516 -372.33398438 122.23535156 C-381.32058874 110.34721455 -388.15770888 97.70438944 -394.77001953 84.36572266 C-396.03069843 81.83658916 -396.03069843 81.83658916 -398 79 C-398 78.01 -398 77.02 -398 76 C-398.58652344 75.979375 -399.17304688 75.95875 -399.77734375 75.9375 C-403.28850523 74.456518 -404.13711307 71.31992888 -405.5625 68 C-405.86696045 67.31808594 -406.1714209 66.63617188 -406.48510742 65.93359375 C-408.63553751 61.04482952 -410.5071988 56.13019003 -412 51 C-412.391875 49.845 -412.78375 48.69 -413.1875 47.5 C-414.0420134 43.8190192 -414.04559043 40.75799336 -413.77734375 37.015625 C-413.83864977 34.53615699 -413.83864977 34.53615699 -417 32 C-409.08 32.66 -401.16 33.32 -393 34 C-391.906875 36.805 -390.81375 39.61 -389.6875 42.5 C-389.34936279 43.36689453 -389.01122559 44.23378906 -388.6628418 45.12695312 C-388.38609619 45.83787109 -388.10935059 46.54878906 -387.82421875 47.28125 C-387.51460205 48.0760376 -387.20498535 48.8708252 -386.88598633 49.68969727 C-386.08302501 51.78350354 -385.3167073 53.88716245 -384.5546875 55.99609375 C-377.82008455 73.98636909 -367.35179805 90.38443825 -355 105 C-354.54334961 105.54543457 -354.08669922 106.09086914 -353.61621094 106.65283203 C-344.09526116 118.01284475 -334.35866675 127.79931697 -322.56689453 136.80029297 C-321.29527958 137.77391651 -320.03459527 138.76180444 -318.77734375 139.75390625 C-307.10048266 148.85243708 -293.73211628 156.2864566 -280.01171875 161.78515625 C-278.06270413 162.57133465 -276.12628063 163.38981326 -274.20703125 164.24609375 C-265.39683191 168.14688546 -256.31867052 170.64761164 -247 173 C-245.81277344 173.30035156 -244.62554687 173.60070312 -243.40234375 173.91015625 C-226.41178494 177.86468397 -209.3678199 178.38551594 -192 178 C-191.23365234 177.99129883 -190.46730469 177.98259766 -189.67773438 177.97363281 C-168.92167861 177.70563387 -147.06595691 173.23188953 -128 165 C-127.35643555 164.72526855 -126.71287109 164.45053711 -126.04980469 164.16748047 C-101.85087556 153.80357233 -79.09440248 141.01408262 -60.8125 121.6875 C-59 120 -59 120 -57 120 C-57 119.34 -57 118.68 -57 118 C-56.34 118 -55.68 118 -55 118 C-54.77441406 117.45214844 -54.54882812 116.90429688 -54.31640625 116.33984375 C-52.61717208 113.31954325 -50.32819763 111.03343058 -47.9375 108.5625 C-38.74536917 98.7715382 -31.76012293 87.45071379 -25.07763672 75.85888672 C-24.06081284 74.10490008 -23.01752703 72.36633107 -21.97265625 70.62890625 C-16.66707267 61.37302678 -13.28945173 51.73080989 -10.05664062 41.57104492 C-9.70150391 40.47767822 -9.34636719 39.38431152 -8.98046875 38.2578125 C-8.67004639 37.2692627 -8.35962402 36.28071289 -8.03979492 35.26220703 C-7.6966626 34.51567871 -7.35353027 33.76915039 -7 33 C-5.515 32.505 -5.515 32.505 -4 32 C-4.02320313 31.154375 -4.04640625 30.30875 -4.0703125 29.4375 C-4.17553504 22.82351163 -3.79603921 17.33896193 -2 11 C-1.68548863 8.62965822 -1.44945492 6.26504335 -1.24609375 3.8828125 C-1 2 -1 2 0 0 Z M17 18 C18 20 18 20 18 20 Z M60 19 C60 22 60 22 60 22 Z M50 34 C50 34.33 50 34.66 50 35 C52.64 35 55.28 35 58 35 C58 34.67 58 34.34 58 34 C55.36 34 52.72 34 50 34 Z M41 35 C41 35.33 41 35.66 41 36 C43.97 36 46.94 36 50 36 C50 35.67 50 35.34 50 35 C47.03 35 44.06 35 41 35 Z M58 35 C58 35.33 58 35.66 58 36 C60.64 36 63.28 36 66 36 C66 35.67 66 35.34 66 35 C63.36 35 60.72 35 58 35 Z " fill="#FEFCFD" transform="translate(446,255)"/>
<path d="M0 0 C4.6773121 -0.0498443 9.35446584 -0.08592757 14.03198242 -0.10986328 C15.61957496 -0.11985321 17.20714943 -0.1334498 18.79467773 -0.15087891 C34.36809671 -0.31743954 34.36809671 -0.31743954 41.04125977 1.50537109 C44.71063413 2.43197616 48.48696106 2.5770356 52.25 2.875 C62.98975798 3.82358984 73.45126114 5.81823273 84 8 C84 8.66 84 9.32 84 10 C84.89460938 10.37511719 85.78921875 10.75023437 86.7109375 11.13671875 C93.94057584 14.19659766 101.01869686 17.40175986 108 21 C109.40572266 21.69029297 109.40572266 21.69029297 110.83984375 22.39453125 C114.3107404 24.15786688 117.69070827 26.05656208 121.0625 28 C121.66126953 28.34289062 122.26003906 28.68578125 122.87695312 29.0390625 C125.42912599 30.50383641 127.9693927 31.98129821 130.48046875 33.515625 C133.04582829 35.02699961 135.66806001 36.39426439 138.31689453 37.75268555 C145.09086204 41.24746419 151.25717391 44.92696357 157 50 C157.81791016 50.71349609 157.81791016 50.71349609 158.65234375 51.44140625 C160.0625 52.75 160.0625 52.75 162 55 C162 55.99 162 56.98 162 58 C162.55171875 58.24234375 163.1034375 58.4846875 163.671875 58.734375 C166.50790919 60.27611171 168.77842001 62.17387281 171.25 64.25 C174.45835115 66.93922802 177.63191097 69.44933092 181.125 71.75 C186.76594752 75.89979541 190.25952772 82.19462017 194 88 C197.9842249 94.32715991 197.9842249 94.32715991 202.875 99.9375 C203.57625 100.618125 204.2775 101.29875 205 102 C205 102.66 205 103.32 205 104 C205.66 104 206.32 104 207 104 C207.226875 105.051875 207.45375 106.10375 207.6875 107.1875 C208.84789381 111.24082003 210.9744972 113.0417306 214 116 C225.06359305 130.38555964 232.22741314 148.64513869 237 166 C237.74404254 168.37687309 238.4937358 170.75198726 239.25 173.125 C240.50120609 177.07347824 241.39185787 180.90112206 242 185 C247.70690634 185.99250545 253.21408489 186.10477512 259 186 C258.67 186.66 258.34 187.32 258 188 C256.824375 188.2475 255.64875 188.495 254.4375 188.75 C245.30845164 190.88105215 238.86311012 198.90410312 232.5625 205.375 C230.96179234 207.00992707 229.35904614 208.6428617 227.75390625 210.2734375 C226.70698608 211.34730713 226.70698608 211.34730713 225.63891602 212.44287109 C224 214 224 214 223 214 C218.04026309 192.41185945 218.58701618 171.00886071 219 149 C214.38 149 209.76 149 205 149 C204.35933594 147.75605469 203.71867187 146.51210937 203.05859375 145.23046875 C189.21456254 118.51264419 169.04500994 87.84005426 142.18359375 72.37890625 C141.46300781 71.92386719 140.74242187 71.46882813 140 71 C140 70.34 140 69.68 140 69 C139.26442871 68.72309326 138.52885742 68.44618652 137.77099609 68.16088867 C135.21261485 67.08907344 133.01124492 65.89296828 130.6640625 64.42578125 C129.45036987 63.67675537 129.45036987 63.67675537 128.2121582 62.91259766 C127.358396 62.38456543 126.50463379 61.8565332 125.625 61.3125 C103.90593929 48.1195412 81.77627244 41.2003947 57 36 C55.8908725 35.74498466 55.8908725 35.74498466 54.75933838 35.4848175 C48.66568689 34.14733136 42.89316296 33.69285298 36.6640625 33.69921875 C35.22490982 33.69279106 35.22490982 33.69279106 33.75668335 33.68623352 C31.73476951 33.68052549 29.71283516 33.67996372 27.69091797 33.68432617 C24.6672658 33.68745625 21.64462332 33.66408591 18.62109375 33.63867188 C1.97463793 33.58326879 -14.2120764 35.15409033 -30.25 39.8125 C-31.16346191 40.07111816 -32.07692383 40.32973633 -33.01806641 40.59619141 C-60.46526938 48.53649842 -84.91182874 61.98534784 -106.765625 80.3203125 C-109 82 -109 82 -111 82 C-111.20625 82.556875 -111.4125 83.11375 -111.625 83.6875 C-113.17050517 86.28675869 -115.07036884 87.78777971 -117.421875 89.6484375 C-119.94681359 91.81088491 -121.9086218 94.42599606 -124 97 C-124.76441406 97.75023438 -125.52882813 98.50046875 -126.31640625 99.2734375 C-129.23803775 102.24184912 -131.81470328 105.346389 -134.375 108.625 C-134.85686768 109.24109131 -135.33873535 109.85718262 -135.83520508 110.49194336 C-139.92432715 115.78499721 -143.52467847 121.28647373 -147 127 C-147.62261719 127.94617188 -148.24523437 128.89234375 -148.88671875 129.8671875 C-158.30661776 144.41343627 -164.58226207 160.29209871 -169.36499023 176.89208984 C-170.18469209 179.61308401 -171.10134988 182.30404964 -172 185 C-182.89 185.99 -182.89 185.99 -194 187 C-193.34 186.01 -192.68 185.02 -192 184 C-191.60984101 181.57289725 -191.60984101 181.57289725 -191.5 178.8125 C-191.13967164 173.64779358 -190.6660271 168.51600631 -190.0625 163.375 C-189.95035156 162.32662964 -189.95035156 162.32662964 -189.8359375 161.25708008 C-189.23235166 156.23235166 -189.23235166 156.23235166 -187 154 C-185.68 154 -184.36 154 -183 154 C-183 152.68 -183 151.36 -183 150 C-183.66 150 -184.32 150 -185 150 C-185 146.04 -185 142.08 -185 138 C-184.01 138 -183.02 138 -182 138 C-182 137.01 -182 136.02 -182 135 C-180.02 135.33 -178.04 135.66 -176 136 C-174.89324381 133.8137775 -173.78955622 131.62609052 -172.6875 129.4375 C-172.37876953 128.82841797 -172.07003906 128.21933594 -171.75195312 127.59179688 C-170.17898895 124.46242604 -168.6896338 121.32701721 -167.33203125 118.09765625 C-166 115 -166 115 -165 114 C-164.76712992 112.31816052 -164.58735834 110.6287584 -164.4375 108.9375 C-164.35371094 108.01839844 -164.26992187 107.09929687 -164.18359375 106.15234375 C-164.09271484 105.08693359 -164.09271484 105.08693359 -164 104 C-163.505 104.99 -163.505 104.99 -163 106 C-161.68 106 -160.36 106 -159 106 C-159.2784375 105.071875 -159.2784375 105.071875 -159.5625 104.125 C-160 102 -160 102 -159 100 C-159.99 99.67 -160.98 99.34 -162 99 C-162 96.03 -162 93.06 -162 90 C-160.35 90 -158.7 90 -157 90 C-157 89.34 -157 88.68 -157 88 C-155.41676312 87.972807 -153.83338938 87.95351694 -152.25 87.9375 C-151.36828125 87.92589844 -150.4865625 87.91429688 -149.578125 87.90234375 C-147.2181162 87.99173802 -145.25501476 88.33087179 -143 89 C-143 86.36 -143 83.72 -143 81 C-140.03 80.01 -140.03 80.01 -137 79 C-137 77.02 -137 75.04 -137 73 C-134.03 73.33 -131.06 73.66 -128 74 C-127.95758277 71.66705225 -127.95907063 69.33297433 -128 67 C-128.33 66.67 -128.66 66.34 -129 66 C-129.14115161 63.32941149 -129.04247107 60.67567762 -129 58 C-128.34 58 -127.68 58 -127 58 C-127 57.34 -127 56.68 -127 56 C-121.16524985 55.14669662 -116.55139349 54.51648186 -111 57 C-111.020625 56.030625 -111.04125 55.06125 -111.0625 54.0625 C-111 51 -111 51 -110 50 C-107.66702567 49.95907063 -105.33294775 49.95758277 -103 50 C-103 48.02 -103 46.04 -103 44 C-100.09399739 42.74335022 -98.20395416 42 -95 42 C-95.020625 40.865625 -95.04125 39.73125 -95.0625 38.5625 C-95 35 -95 35 -94 34 C-91.46950598 33.92686433 -88.96695163 33.90752473 -86.4375 33.9375 C-85.72658203 33.94201172 -85.01566406 33.94652344 -84.28320312 33.95117188 C-82.52209987 33.96299136 -80.76103964 33.98092737 -79 34 C-78.9175 33.05125 -78.835 32.1025 -78.75 31.125 C-78 28 -78 28 -76.265625 26.6328125 C-73.65558558 25.90380149 -71.45721756 25.80375743 -68.75 25.875 C-67.85796875 25.89304687 -66.9659375 25.91109375 -66.046875 25.9296875 C-65.03367188 25.96449219 -65.03367188 25.96449219 -64 26 C-64 25.34 -64 24.68 -64 24 C-65.32 23.67 -66.64 23.34 -68 23 C-68 22.34 -68 21.68 -68 21 C-67.01 21 -66.02 21 -65 21 C-65 20.34 -65 19.68 -65 19 C-62.03 18.505 -62.03 18.505 -59 18 C-58.67 17.01 -58.34 16.02 -58 15 C-57.01 15.495 -57.01 15.495 -56 16 C-54.46331135 16.22467831 -52.92031946 16.40796805 -51.375 16.5625 C-50.55773437 16.64628906 -49.74046875 16.73007812 -48.8984375 16.81640625 C-48.27195313 16.87699219 -47.64546875 16.93757813 -47 17 C-46.67 15.68 -46.34 14.36 -46 13 C-45.13955078 12.88785156 -45.13955078 12.88785156 -44.26171875 12.7734375 C-36.7982519 11.61824233 -29.79457654 9.47216291 -22.6394043 7.12060547 C-16.22609711 5.01811891 -10.81426237 3.86638701 -4 4 C-4 3.34 -4 2.68 -4 2 C-2.68 2 -1.36 2 0 2 C0 1.34 0 0.68 0 0 Z " fill="#FEFCFD" transform="translate(223,0)"/>
<path d="M0 0 C0.495 36.63 0.495 36.63 1 74 C11.68569951 63.23520947 11.68569951 63.23520947 22.36035156 52.45947266 C23.70337703 51.1106052 25.04677625 49.76210973 26.390625 48.4140625 C27.08269043 47.71176514 27.77475586 47.00946777 28.48779297 46.28588867 C29.1572998 45.61614014 29.82680664 44.9463916 30.51660156 44.25634766 C31.09396057 43.67454742 31.67131958 43.09274719 32.26617432 42.49331665 C35.6057599 39.61698438 37.52258123 39 42 39 C42 38.34 42 37.68 42 37 C47.28 37 52.56 37 58 37 C58 36.01 58 35.02 58 34 C53.71 34 49.42 34 45 34 C45 33.67 45 33.34 45 33 C54.57 33 64.14 33 74 33 C74.64050431 38.12403451 75.12195212 42.06231223 74.87890625 47.03125 C74.83056641 48.08828125 74.78222656 49.1453125 74.73242188 50.234375 C74.67634766 51.31203125 74.62027344 52.3896875 74.5625 53.5 C74.51029297 54.60859375 74.45808594 55.7171875 74.40429688 56.859375 C74.27562355 59.57321238 74.13865368 62.28665422 74 65 C68.72 65 63.44 65 58 65 C58 62.69 58 60.38 58 58 C57.34 58 56.68 58 56 58 C56.20625 57.38125 56.4125 56.7625 56.625 56.125 C56.810625 55.073125 56.810625 55.073125 57 54 C56.34 53.34 55.68 52.68 55 52 C54.01 52.99 54.01 52.99 53 54 C53.99 55.98 53.99 55.98 55 58 C53.35 57.34 51.7 56.68 50 56 C49.34 56.99 48.68 57.98 48 59 C47.34 59 46.68 59 46 59 C46 59.66 46 60.32 46 61 C45.34 61 44.68 61 44 61 C44 61.66 44 62.32 44 63 C43.01 63.66 42.02 64.32 41 65 C40.27617533 67.05925139 40.27617533 67.05925139 40 69 C39.34 69 38.68 69 38 69 C38 69.66 38 70.32 38 71 C38.99 71 39.98 71 41 71 C41.66 71 42.32 71 43 71 C42.67 74.3 42.34 77.6 42 81 C35.1640625 81.9765625 35.1640625 81.9765625 33 82 C32.01 81.01 32.01 81.01 31 80 C32.11179163 83.33537489 33.47411298 84.63707344 36 87 C35.34 88.32 34.68 89.64 34 91 C32.8944811 90.06409496 31.79064547 89.12620142 30.6875 88.1875 C30.07261719 87.66542969 29.45773437 87.14335937 28.82421875 86.60546875 C27.14575321 85.12827531 25.56117966 83.59960869 24 82 C25.20381448 79.50638429 26.45428722 77.31856917 28 75 C27.01 74.01 27.01 74.01 26 73 C22.535 76.465 22.535 76.465 19 80 C20.88780171 83.77560341 22.41491359 85.65370249 25.35791016 88.5690918 C26.25869293 89.46649582 27.15947571 90.36389984 28.08755493 91.28849792 C29.07135838 92.25877106 30.05519502 93.22901055 31.0390625 94.19921875 C32.04562283 95.1995067 33.05166842 96.20031285 34.05722046 97.20161438 C36.6997972 99.83091078 39.34789104 102.45457345 41.99761963 105.07666016 C46.24721324 109.28306133 50.49001641 113.49628624 54.72968674 117.71268654 C56.21422175 119.18696327 57.70210205 120.65780231 59.19033813 122.12834167 C60.08481659 123.01628922 60.97929504 123.90423676 61.90087891 124.8190918 C62.69426666 125.60422653 63.48765442 126.38936127 64.30508423 127.19828796 C66 129 66 129 66 130 C62.83365364 130.11760715 59.66787926 130.18771024 56.5 130.25 C55.613125 130.28351563 54.72625 130.31703125 53.8125 130.3515625 C52.9359375 130.36445313 52.059375 130.37734375 51.15625 130.390625 C50.36025391 130.41157227 49.56425781 130.43251953 48.74414062 130.45410156 C40.82977322 129.14442866 35.62291937 124.18293076 30.21875 118.609375 C29.51979614 117.90476135 28.82084229 117.20014771 28.10070801 116.47418213 C25.8908246 114.24207484 23.69533321 111.99640988 21.5 109.75 C19.99572441 108.22564149 18.49052478 106.70219425 16.984375 105.1796875 C13.31216523 101.46359624 9.65164094 97.73629943 6 94 C3.39118147 95.51544301 3.39118147 95.51544301 1 98 C0.22021677 101.47008913 0.22021677 101.47008913 0.29296875 105.390625 C0.27028679 106.44754547 0.27028679 106.44754547 0.24714661 107.52581787 C0.20429485 109.76753805 0.19543532 112.00791122 0.1875 114.25 C0.16435331 115.77347325 0.13898759 117.2969145 0.11132812 118.8203125 C0.04433428 122.54760648 0.02335835 126.27115807 0 130 C-5.94 130 -11.88 130 -18 130 C-18.06948975 114.58798324 -18.12300579 99.17598936 -18.15543652 83.76385307 C-18.17089589 76.60748837 -18.19196753 69.45122289 -18.22631836 62.29492188 C-18.25624932 56.05643144 -18.27558176 49.81801288 -18.28226548 43.57945263 C-18.28617154 40.27709774 -18.29691217 36.97499599 -18.31719017 33.67269516 C-18.33894534 29.98333257 -18.34196764 26.29439681 -18.34057617 22.60498047 C-18.351362 21.51381424 -18.36214783 20.42264801 -18.3732605 19.29841614 C-18.35076311 13.791171 -18.19316403 9.71359233 -15 5 C-9.42847765 -0.0279592 -8.16458743 0 0 0 Z M65 40 C64.67 40.99 64.34 41.98 64 43 C64.66 43 65.32 43 66 43 C65.67 42.01 65.34 41.02 65 40 Z M58 47 C57.34 48.32 56.68 49.64 56 51 C56.66 51 57.32 51 58 51 C58 50.34 58 49.68 58 49 C58.66 49 59.32 49 60 49 C60 48.34 60 47.68 60 47 C59.34 47 58.68 47 58 47 Z M63 48 C64 50 64 50 64 50 Z M58 51 C59 53 59 53 59 53 Z M34 71 C33.67 71.99 33.34 72.98 33 74 C32.01 74.495 32.01 74.495 31 75 C31 75.66 31 76.32 31 77 C31.99 76.67 32.98 76.34 34 76 C34 75.01 34 74.02 34 73 C34.66 73 35.32 73 36 73 C36 72.34 36 71.68 36 71 C35.34 71 34.68 71 34 71 Z M34 77 C33.67 77.99 33.34 78.98 33 80 C33.66 80 34.32 80 35 80 C34.67 79.01 34.34 78.02 34 77 Z " fill="#FCFAFC" transform="translate(438,153)"/>
<path d="M0 0 C1.25296875 -0.02449219 2.5059375 -0.04898438 3.796875 -0.07421875 C4.85406738 -0.09488403 4.85406738 -0.09488403 5.93261719 -0.1159668 C10.48380334 0.13932529 13.30860869 2.25254994 16.3125 5.5 C18.64906802 8.96158226 19.12367061 11.52773407 19.12597656 15.60400391 C19.12978333 16.53572418 19.13359009 17.46744446 19.13751221 18.42739868 C19.13853943 19.43362274 19.13956665 20.4398468 19.140625 21.4765625 C19.15896034 23.61329185 19.17853132 25.75001088 19.19921875 27.88671875 C19.22812115 31.25066438 19.24999839 34.61394971 19.25048828 37.97802734 C19.2538394 41.22813297 19.28849623 44.47672193 19.328125 47.7265625 C19.3210553 48.72064117 19.3139856 49.71471985 19.30670166 50.73892212 C19.43944116 58.42600505 21.44137693 64.22203494 26.77203369 69.8812561 C32.40422429 75.14408382 37.95546833 76.41722739 45.5390625 76.2578125 C49.23386731 75.87073771 51.71122537 74.74111598 55 73 C56.299375 72.4121875 56.299375 72.4121875 57.625 71.8125 C61.83735055 68.59781142 64.34014273 63.97957182 66 59 C66.09507553 57.42101695 66.13533774 55.83842127 66.1418457 54.2565918 C66.14888016 53.29516769 66.15591461 52.33374359 66.16316223 51.34318542 C66.16940865 49.78692192 66.16940865 49.78692192 66.17578125 48.19921875 C66.19897972 46.00324563 66.22309706 43.80728205 66.24804688 41.61132812 C66.28315933 38.14845388 66.31250608 34.685931 66.32592773 31.22290039 C66.34141493 27.88124027 66.38163078 24.54060711 66.42578125 21.19921875 C66.42387283 20.16778244 66.42196442 19.13634613 66.41999817 18.07365417 C66.54940886 10.45478224 68.03036353 7.22417674 73.1875 1.625 C76 0 76 0 85 0 C85 30.36 85 60.72 85 92 C72 92 72 92 68.8125 89.5 C68.214375 88.675 67.61625 87.85 67 87 C64.28943664 87 62.76094074 88.09708128 60.375 89.375 C50.19731987 94.51480127 40.61835674 95.48072197 29.5 92.5 C19.11724404 88.98564673 10.62826949 82.43003953 5 73 C0.67972416 63.50507805 -0.70764613 55.08255383 -0.48828125 44.7265625 C-0.48120651 43.43680511 -0.47413177 42.14704773 -0.46684265 40.81820679 C-0.44803695 37.44112818 -0.3991791 34.06517932 -0.34332275 30.6885376 C-0.2915466 27.22220125 -0.26920613 23.75567666 -0.24414062 20.2890625 C-0.19102279 13.52558674 -0.10604674 6.76284806 0 0 Z " fill="#FAF5F7" transform="translate(90,191)"/>
<path d="M0 0 C2.01161597 1.19693081 3.86088676 2.48090802 5.72265625 3.8984375 C6.32722656 4.34058594 6.93179688 4.78273437 7.5546875 5.23828125 C14.94705044 11.05231833 19.63671388 18.76223272 21.72265625 27.8984375 C22.11831406 32.71668419 22.07274645 37.50814889 22.015625 42.33984375 C22.01001811 43.71703119 22.00575319 45.09422468 22.00276184 46.47142029 C21.99139885 50.06687427 21.9620075 53.66195499 21.9286499 57.25726318 C21.8977627 60.93773349 21.88421698 64.6182651 21.86914062 68.29882812 C21.83712775 75.49886665 21.78603755 82.69859944 21.72265625 89.8984375 C15.58981137 90.06248479 12.61119416 90.1203566 7.72265625 85.8984375 C3.05401745 80.50396835 3.16281637 75.88763781 3.21875 69.09375 C3.20932877 68.05580292 3.19990753 67.01785583 3.19020081 65.94845581 C3.16159666 62.63991462 3.15847037 59.33209219 3.16015625 56.0234375 C3.15653999 52.72202884 3.14690131 49.4211429 3.11940002 46.11984253 C3.10271192 44.06971788 3.09965632 42.01942169 3.1124115 39.9692688 C3.06105374 32.94817063 2.32612005 27.02259406 -2.328125 21.4375 C-9.34101606 15.50258356 -14.29294021 13.42221302 -23.53515625 13.66015625 C-29.9762324 14.2198509 -33.79238246 16.01844941 -38.15234375 20.8359375 C-41.58370652 24.97751256 -43.52023439 28.19192832 -43.54858398 33.64770508 C-43.5587706 34.58580521 -43.56895721 35.52390533 -43.57945251 36.49043274 C-43.58159256 37.49776962 -43.5837326 38.50510651 -43.5859375 39.54296875 C-43.61110077 41.68554956 -43.63649875 43.82812762 -43.66210938 45.97070312 C-43.69082491 49.34121978 -43.71484794 52.71168868 -43.73364258 56.08227539 C-43.75535452 59.34025911 -43.79480211 62.59768071 -43.8359375 65.85546875 C-43.83605331 66.85673294 -43.83616913 67.85799713 -43.83628845 68.88960266 C-43.93264911 75.73484686 -44.65307271 80.86412411 -49.27734375 86.2109375 C-54.26973006 90.42326345 -54.67920851 89.8984375 -62.27734375 89.8984375 C-62.27734375 59.5384375 -62.27734375 29.1784375 -62.27734375 -2.1015625 C-49.27734375 -2.1015625 -49.27734375 -2.1015625 -45.27734375 -0.1015625 C-44.94734375 0.8884375 -44.61734375 1.8784375 -44.27734375 2.8984375 C-40.42075213 1.45221564 -36.79971381 -0.31473747 -33.14453125 -2.19921875 C-23.41841333 -6.89949749 -9.44889256 -4.57047633 0 0 Z " fill="#FCF9FB" transform="translate(250.27734375,193.1015625)"/>
<path d="M0 0 C2.99096937 2.41207207 4.74162577 4.17583207 5.5 8.0625 C5.9504325 13.10734396 5.49183943 15.94872078 2.5 20.0625 C1.96632813 19.66417969 1.43265625 19.26585937 0.8828125 18.85546875 C-7.62477791 12.80595377 -14.98143561 10.82609818 -25.3125 10.6875 C-26.04210938 10.67348145 -26.77171875 10.65946289 -27.5234375 10.64501953 C-32.02427193 10.68542758 -34.94454493 11.26282558 -38.5 14.0625 C-40.68379446 17.3381917 -41.04275639 18.26320529 -40.5 22.0625 C-37.76984013 26.64916858 -34.38534083 28.35160789 -29.5 30.0625 C-27.09688492 30.60556203 -24.67835114 31.08408028 -22.25 31.5 C-10.82176487 33.63095154 -0.26419147 37.00270897 7.9375 45.625 C12.27468993 52.39101629 12.46784441 59.20839979 11.5 67.0625 C8.02272171 76.33111722 1.08346898 82.10673188 -7.60546875 86.30078125 C-18.80766997 90.80475906 -35.74906118 89.55038276 -46.89453125 85.3984375 C-52.47655395 82.53629093 -58.28744656 78.11014608 -60.5 72.0625 C-60.63861947 66.84827534 -59.31548602 63.44552689 -56.5 59.0625 C-55.78714844 59.53300781 -55.07429688 60.00351563 -54.33984375 60.48828125 C-43.10272696 67.79316337 -32.24056197 72.80996103 -18.5 71.0625 C-15.20244125 69.95989482 -12.82096344 68.67201565 -10.5 66.0625 C-9.22881341 63.27263917 -8.93732582 61.0776997 -9.5 58.0625 C-13.4865348 52.27559465 -19.34899249 50.67978165 -25.9296875 49.390625 C-27.19039062 49.15859375 -28.45109375 48.9265625 -29.75 48.6875 C-39.23011286 46.87276254 -48.68364394 44.21967386 -55.5 37.0625 C-57.01528692 34.78003951 -58.25158077 32.51132234 -59.5 30.0625 C-60.29953138 33.34946233 -60.59658936 34.77273192 -59.5 38.0625 C-62.5 37.0625 -62.5 37.0625 -63.34716797 35.43945312 C-64.05093469 33.15287722 -64.73949275 30.86918132 -65.375 28.5625 C-65.601875 27.74257568 -65.82875 26.92265137 -66.0625 26.07788086 C-67.39447304 20.77580623 -67.94521332 16.81866337 -65.625 11.69140625 C-64.40960767 9.93161944 -63.06467338 8.51604601 -61.5 7.0625 C-61.74556641 8.04283203 -61.74556641 8.04283203 -61.99609375 9.04296875 C-62.62848563 12.83241774 -62.60696709 16.54740951 -62.5625 20.375 C-62.55798828 21.11556641 -62.55347656 21.85613281 -62.54882812 22.61914062 C-62.53712175 24.43362899 -62.51918898 26.24807534 -62.5 28.0625 C-61.26819922 25.59889844 -61.32288276 23.75020405 -61.1875 21 C-60.54875109 13.38491534 -57.97782752 6.54032752 -52.5 1.0625 C-37.78049383 -10.61520798 -15.09255468 -10.37445588 0 0 Z " fill="#FBF8FB" transform="translate(70.5,195.9375)"/>
<path d="M0 0 C3.58202713 3.64611907 4.81705122 6.65075276 5.5 11.6875 C4.97508872 15.16503723 4.05421685 17.17545183 2 20 C0.63875 18.88625 0.63875 18.88625 -0.75 17.75 C-10.3740695 11.00738843 -21.55295889 9.64539279 -33 11 C-36.99161757 12.59571658 -38.5987384 13.39810759 -41 17 C-41.58402133 19.41417872 -41.58402133 19.41417872 -41 22 C-35.7645595 28.66328791 -28.46050579 30.3222958 -20.5625 32 C-10.69307343 34.10785943 -0.00076515 36.83516125 6.64453125 45.02734375 C11.57691684 52.6604592 11.34553461 59.09384233 10 68 C8.08862886 74.70078388 3.63077224 79.09718961 -2 83 C-4.92266857 84.58743927 -7.87528018 85.86715484 -11 87 C-11.92425781 87.35835938 -12.84851563 87.71671875 -13.80078125 88.0859375 C-25.51350448 91.43242985 -40.29595459 89.15414593 -51 83.6875 C-55.49871611 80.90061153 -59.09548616 78.14318559 -60.625 72.828125 C-61.45212881 67.69303365 -60.87580337 64.48625325 -58 60 C-54.17972781 60 -52.77459998 61.26088494 -49.625 63.375 C-41.56903323 68.76783726 -34.64585792 70.17651516 -25 70.3125 C-24.31421875 70.34150391 -23.6284375 70.37050781 -22.921875 70.40039062 C-17.79517911 70.46398514 -14.86481103 69.34285628 -11 66 C-9.66500481 63.32469092 -9.56565951 60.94647197 -10 58 C-14.07575852 52.08357634 -20.03671903 50.55754039 -26.7578125 49.29296875 C-28.15083277 49.04828688 -29.54406849 48.80482893 -30.9375 48.5625 C-41.91112404 46.63264275 -51.40689994 42.88858981 -58.4375 33.875 C-62.1675884 27.01163734 -62.03618806 18.66160376 -59.875 11.25 C-56.54146207 2.71066312 -51.08586899 -0.89828776 -43 -4.8359375 C-29.24618419 -10.17270457 -11.81833144 -8.87635704 0 0 Z " fill="#FDF4FB" transform="translate(341,196)"/>
<path d="M0 0 C0 42.57 0 85.14 0 129 C-6.27 129 -12.54 129 -19 129 C-19.06949108 113.71836953 -19.12300648 98.43675739 -19.15543652 83.1550045 C-19.17089559 76.05917349 -19.19196665 68.96344255 -19.22631836 61.86767578 C-19.25944985 55.02068762 -19.27685046 48.17380354 -19.28463173 41.32674026 C-19.29017749 38.71364327 -19.30100688 36.100552 -19.31719017 33.48749924 C-19.33894674 29.82926862 -19.34196758 26.17146843 -19.34057617 22.51318359 C-19.351362 21.4313681 -19.36214783 20.34955261 -19.3732605 19.23495483 C-19.34351434 12.01393806 -18.36541477 7.65387998 -13.4375 2.125 C-10 0 -10 0 0 0 Z " fill="#FCFBFE" transform="translate(408,154)"/>
<path d="M0 0 C0 32.67 0 65.34 0 99 C-5.94 99 -11.88 99 -18 99 C-18.15835336 87.40366164 -18.28668821 75.80804514 -18.3626852 64.21086884 C-18.39916619 58.82539089 -18.44862291 53.44069306 -18.52807617 48.05566406 C-18.60431884 42.85549796 -18.6460289 37.65608059 -18.6641407 32.45539856 C-18.67704207 30.47463701 -18.70223648 28.49391495 -18.7401104 26.51347351 C-19.0608181 9.04352499 -19.0608181 9.04352499 -14.70727539 3.78320312 C-10.02826069 -0.49685458 -6.40754943 0 0 0 Z " fill="#FDF6FB" transform="translate(377,184)"/>
<path d="M0 0 C2.03653865 1.83288478 3.21390985 3.38503773 4.5625 5.8125 C10.78452876 15.32297742 24.06182086 17.40333714 34.3125 19.5625 C35.46363281 19.79066406 36.61476562 20.01882812 37.80078125 20.25390625 C43.75522076 21.64254843 46.82768273 23.47998962 51 28 C51.33 28.33 51.66 28.66 52 29 C51.76341128 36.21595598 51.76341128 36.21595598 48.6875 39.375 C41.37436914 43.79689308 35.1059933 44.05599861 26.67578125 42.3125 C19.39853688 40.24559036 13.25326431 37.22517859 7 33 C6.01 32.34 5.02 31.68 4 31 C1.39332746 36.10907817 0.19546124 39.28562727 2 45 C6.65408064 52.52574741 12.85990074 55.42393174 21.19140625 57.5625 C25.38175726 58.21523896 29.5792829 58.36993755 33.8125 58.5625 C34.69615234 58.60568359 35.57980469 58.64886719 36.49023438 58.69335938 C38.65999623 58.79891536 40.8299791 58.89991071 43 59 C43 59.33 43 59.66 43 60 C41.39318359 60.07347656 41.39318359 60.07347656 39.75390625 60.1484375 C38.35674361 60.22345294 36.9596095 60.2990013 35.5625 60.375 C34.85544922 60.4059375 34.14839844 60.436875 33.41992188 60.46875 C31.60760812 60.57280629 29.80182012 60.77919892 28 61 C27.505 61.99 27.505 61.99 27 63 C20.01138887 62.66720899 14.26185283 62.19482287 8 59 C3.92239373 57.03853077 0.69613677 56.78391643 -3.8125 56.875 C-5.55466797 56.90207031 -5.55466797 56.90207031 -7.33203125 56.9296875 C-8.21246094 56.95289063 -9.09289063 56.97609375 -10 57 C-10 54.36 -10 51.72 -10 49 C-8.35 49 -6.7 49 -5 49 C-5.99 46.03 -6.98 43.06 -8 40 C-6.68 40 -5.36 40 -4 40 C-4 37.69 -4 35.38 -4 33 C-3.34 33 -2.68 33 -2 33 C-2.33 30.03 -2.66 27.06 -3 24 C-1.68 24.33 -0.36 24.66 1 25 C1 24.34 1 23.68 1 23 C4.94727588 22.82057837 7.5980513 22.90649311 11 25 C10.73606499 21.56769552 10.73606499 21.56769552 10 18 C7.18490007 15.7226499 7.18490007 15.7226499 4 16 C1 12.66666667 1 12.66666667 1 10 C0.649375 9.4225 0.29875 8.845 -0.0625 8.25 C-1.32612842 5.2172918 -0.71481819 3.14520005 0 0 Z M-1 26 C0 29 0 29 0 29 Z " fill="#772E47" transform="translate(10,225)"/>
<path d="M0 0 C9.57 0 19.14 0 29 0 C29.64050431 5.12403451 30.12195212 9.06231223 29.87890625 14.03125 C29.83056641 15.08828125 29.78222656 16.1453125 29.73242188 17.234375 C29.67634766 18.31203125 29.62027344 19.3896875 29.5625 20.5 C29.51029297 21.60859375 29.45808594 22.7171875 29.40429688 23.859375 C29.27562355 26.57321238 29.13865368 29.28665422 29 32 C23.72 32 18.44 32 13 32 C13 29.69 13 27.38 13 25 C12.34 25 11.68 25 11 25 C11.20625 24.38125 11.4125 23.7625 11.625 23.125 C11.810625 22.073125 11.810625 22.073125 12 21 C11.34 20.34 10.68 19.68 10 19 C9.34 19.66 8.68 20.32 8 21 C8.66 22.32 9.32 23.64 10 25 C8.35 24.34 6.7 23.68 5 23 C4.34 23.99 3.68 24.98 3 26 C2.34 26 1.68 26 1 26 C1 26.66 1 27.32 1 28 C0.34 28 -0.32 28 -1 28 C-1 28.66 -1 29.32 -1 30 C-1.99 30.66 -2.98 31.32 -4 32 C-4.72382467 34.05925139 -4.72382467 34.05925139 -5 36 C-5.66 36 -6.32 36 -7 36 C-7 36.66 -7 37.32 -7 38 C-6.01 38 -5.02 38 -4 38 C-3.34 38 -2.68 38 -2 38 C-2.33 41.3 -2.66 44.6 -3 48 C-9.8359375 48.9765625 -9.8359375 48.9765625 -12 49 C-12.66 48.34 -13.32 47.68 -14 47 C-12.88820837 50.33537489 -11.52588702 51.63707344 -9 54 C-9.66 55.32 -10.32 56.64 -11 58 C-12.1055189 57.06409496 -13.20935453 56.12620142 -14.3125 55.1875 C-14.92738281 54.66542969 -15.54226563 54.14335937 -16.17578125 53.60546875 C-17.85424679 52.12827531 -19.43882034 50.59960869 -21 49 C-19.79618552 46.50638429 -18.54571278 44.31856917 -17 42 C-17.18199448 41.34807678 -17.36398895 40.69615356 -17.55149841 40.0244751 C-17.69950394 39.35639832 -17.84750946 38.68832153 -18 38 C-16.90541077 36.30413818 -16.90541077 36.30413818 -15.17602539 34.60839844 C-14.5352858 33.9680365 -13.8945462 33.32767456 -13.23439026 32.66790771 C-12.52926804 31.98859192 -11.82414581 31.30927612 -11.09765625 30.609375 C-10.38596786 29.90476135 -9.67427948 29.20014771 -8.94102478 28.47418213 C-6.65961896 26.22082068 -4.36146474 23.98543094 -2.0625 21.75 C-0.5151434 20.22771294 1.03109583 18.7042892 2.57617188 17.1796875 C6.37126261 13.43979988 10.18146723 9.71594343 14 6 C8.39 5.67 2.78 5.34 -3 5 C-3 4.67 -3 4.34 -3 4 C2.28 4 7.56 4 13 4 C13 3.01 13 2.02 13 1 C8.71 1 4.42 1 0 1 C0 0.67 0 0.34 0 0 Z M20 7 C19.67 7.99 19.34 8.98 19 10 C19.66 10 20.32 10 21 10 C20.67 9.01 20.34 8.02 20 7 Z M13 14 C12.34 15.32 11.68 16.64 11 18 C11.66 18 12.32 18 13 18 C13 17.34 13 16.68 13 16 C13.66 16 14.32 16 15 16 C15 15.34 15 14.68 15 14 C14.34 14 13.68 14 13 14 Z M18 15 C19 17 19 17 19 17 Z M13 18 C14 20 14 20 14 20 Z M-11 38 C-11.33 38.99 -11.66 39.98 -12 41 C-12.99 41.495 -12.99 41.495 -14 42 C-14 42.66 -14 43.32 -14 44 C-13.01 43.67 -12.02 43.34 -11 43 C-11 42.01 -11 41.02 -11 40 C-10.34 40 -9.68 40 -9 40 C-9 39.34 -9 38.68 -9 38 C-9.66 38 -10.32 38 -11 38 Z M-11 44 C-11.33 44.99 -11.66 45.98 -12 47 C-11.34 47 -10.68 47 -10 47 C-10.33 46.01 -10.66 45.02 -11 44 Z " fill="#803651" transform="translate(483,186)"/>
<path d="M0 0 C0.99 1.32 1.98 2.64 3 4 C1.68 5.32 0.36 6.64 -1 8 C0.60021643 12.15858715 3.64893607 14.76702246 6.875 17.6875 C7.40480469 18.18572266 7.93460937 18.68394531 8.48046875 19.19726562 C12.22732555 22.63601909 12.22732555 22.63601909 17 24 C17.09587402 24.58555664 17.19174805 25.17111328 17.29052734 25.77441406 C18.15417259 28.48363295 19.31203481 29.64240387 21.3515625 31.609375 C22.03863281 32.28226562 22.72570312 32.95515625 23.43359375 33.6484375 C24.15675781 34.34195313 24.87992187 35.03546875 25.625 35.75 C30.4362542 40.41062561 35.05812695 45.11385383 39.42382812 50.19677734 C41.48757964 52.55781648 43.69027475 54.75173732 45.9375 56.9375 C47.30987145 58.27321379 48.67017209 59.62192437 50 61 C50 61.33 50 61.66 50 62 C45.71330142 62.02487594 41.42664205 62.04294275 37.13989258 62.05493164 C35.68415596 62.05993417 34.22842429 62.0667383 32.77270508 62.07543945 C30.67007212 62.087685 28.56750609 62.09326923 26.46484375 62.09765625 C25.202771 62.10289307 23.94069824 62.10812988 22.64038086 62.11352539 C19.00189292 62.00005903 15.57071442 61.71380499 12 61 C11.67 60.34 11.34 59.68 11 59 C9.515 58.505 9.515 58.505 8 58 C6.97980427 57.0206121 5.97850195 56.02104551 5 55 C4.34 54.67 3.68 54.34 3 54 C2.71398926 53.24565674 2.42797852 52.49131348 2.13330078 51.71411133 C0.82739282 48.58662774 -0.71838471 46.9376375 -3.1328125 44.57421875 C-3.93847656 43.77822266 -4.74414062 42.98222656 -5.57421875 42.16210938 C-6.41597656 41.34548828 -7.25773437 40.52886719 -8.125 39.6875 C-8.97449219 38.85154297 -9.82398438 38.01558594 -10.69921875 37.15429688 C-12.79287141 35.0959305 -14.89320824 33.04490197 -17 31 C-17.66 31.33 -18.32 31.66 -19 32 C-19 31.01 -19 30.02 -19 29 C-18.01 29 -17.02 29 -16 29 C-16.66 27.35 -17.32 25.7 -18 24 C-13.49987412 27.6627445 -9.36545872 31.58184881 -5.3125 35.73046875 C-4.80275635 36.25045441 -4.2930127 36.77044006 -3.76782227 37.30618286 C-1.63805355 39.4812104 0.48948276 41.65808336 2.60253906 43.84936523 C4.16327871 45.46488866 5.73669144 47.06715805 7.3125 48.66796875 C7.77938232 49.15863327 8.24626465 49.64929779 8.72729492 50.15483093 C12.4440952 53.90031578 14.72995003 54.74140716 20 57 C26.27 57 32.54 57 39 57 C23.49 41.49 7.98 25.98 -8 10 C-5.77502475 5.55004949 -3.55366005 3.39915309 0 0 Z " fill="#702A47" transform="translate(464,225)"/>
<path d="M0 0 C3.63 0 7.26 0 11 0 C11.0093457 1.12156494 11.01869141 2.24312988 11.02832031 3.39868164 C11.26703399 33.91807042 11.26703399 33.91807042 16 64 C16.59949463 63.38479492 17.19898926 62.76958984 17.81665039 62.13574219 C20.06744447 59.8334927 22.32516835 57.53832242 24.58764648 55.24755859 C25.56113515 54.25908326 26.53190252 53.26791954 27.49975586 52.27392578 C35.8025449 43.75275497 41.56209048 38.21307852 53.8671875 37.90234375 C55.20316035 37.90889264 56.53911709 37.92067202 57.875 37.9375 C58.56335938 37.94201172 59.25171875 37.94652344 59.9609375 37.95117188 C61.64066335 37.96283664 63.32034375 37.98076729 65 38 C65 38.99 65 39.98 65 41 C59.72 41 54.44 41 49 41 C49 41.66 49 42.32 49 43 C47.26641235 43.5101062 47.26641235 43.5101062 45.49780273 44.03051758 C40.19947544 46.02936617 36.89918982 49.48258721 33.03515625 53.51171875 C32.31637802 54.23994339 31.59759979 54.96816803 30.85704041 55.71846008 C28.58001948 58.02988763 26.32086819 60.357858 24.0625 62.6875 C21.77568139 65.02421458 19.48535694 67.35741575 17.19297791 69.68867493 C15.77111871 71.13703782 14.35317539 72.58925691 12.93946838 74.045578 C11.98728676 75.02208061 11.98728676 75.02208061 11.01586914 76.01831055 C10.45597794 76.59550339 9.89608673 77.17269623 9.31922913 77.76737976 C8 79 8 79 7 79 C7 54.25 7 29.5 7 4 C4.36 4 1.72 4 -1 4 C-0.67 2.68 -0.34 1.36 0 0 Z " fill="#8A1C4B" transform="translate(431,149)"/>
<path d="M0 0 C1.32 0 2.64 0 4 0 C4 42.57 4 85.14 4 129 C-2.27 129 -8.54 129 -15 129 C-15 90.06 -15 51.12 -15 11 C-14.67 11 -14.34 11 -14 11 C-14 49.61 -14 88.22 -14 128 C-9.38 128 -4.76 128 0 128 C0 85.76 0 43.52 0 0 Z " fill="#EACBDE" transform="translate(404,154)"/>
<path d="M0 0 C2.03653865 1.83288478 3.21390985 3.38503773 4.5625 5.8125 C10.78452876 15.32297742 24.06182086 17.40333714 34.3125 19.5625 C35.46363281 19.79066406 36.61476562 20.01882812 37.80078125 20.25390625 C43.75522076 21.64254843 46.82768273 23.47998962 51 28 C51.33 28.33 51.66 28.66 52 29 C51.7682359 36.06880497 51.7682359 36.06880497 48.9375 39.5 C44.99202384 41.51471123 42.39249985 41.2977966 38 41 C36.30167391 35.16200408 35.74712807 30.06892629 36 24 C35.40574219 23.96261719 34.81148437 23.92523438 34.19921875 23.88671875 C26.11267701 23.24532897 18.02631816 22.02495989 11 17.75 C9.515 16.88375 9.515 16.88375 8 16 C7.01 16.33 6.02 16.66 5 17 C1 12.25 1 12.25 1 10 C0.649375 9.4225 0.29875 8.845 -0.0625 8.25 C-1.32612842 5.2172918 -0.71481819 3.14520005 0 0 Z " fill="#980E45" transform="translate(10,225)"/>
<path d="M0 0 C4.875 1.75 4.875 1.75 6 4 C8.32359247 4.39556744 10.66007861 4.7165861 13 5 C17.68031144 5.94191878 22.33608184 6.97837983 27 8 C27.495 14.93 27.495 14.93 28 22 C18.73994353 22.44095507 12.50823018 20.53970656 4.5625 15.8125 C-0.76130303 12.7671042 -4.96733914 12.29335426 -11 13 C-11.33 11.35 -11.66 9.7 -12 8 C-10.68 8.33 -9.36 8.66 -8 9 C-8 8.34 -8 7.68 -8 7 C-4.05272412 6.82057837 -1.4019487 6.90649311 2 9 C1.51515724 4.35413108 1.51515724 4.35413108 0 0 Z " fill="#FAF9FA" transform="translate(19,241)"/>
<path d="M0 0 C1.13292996 6.91506879 0.92582433 13.51749095 0.5625 20.5 C0.51029297 21.60859375 0.45808594 22.7171875 0.40429688 23.859375 C0.27562355 26.57321238 0.13865368 29.28665422 0 32 C-5.28 32 -10.56 32 -16 32 C-16 29.69 -16 27.38 -16 25 C-16.66 25 -17.32 25 -18 25 C-17.6596875 24.13375 -17.6596875 24.13375 -17.3125 23.25 C-16.73494807 20.87827523 -16.73494807 20.87827523 -18.4375 18.75 C-19.2109375 17.88375 -19.2109375 17.88375 -20 17 C-19.34 16.67 -18.68 16.34 -18 16 C-18 16.66 -18 17.32 -18 18 C-17.34 18 -16.68 18 -16 18 C-16 17.34 -16 16.68 -16 16 C-15.34 16 -14.68 16 -14 16 C-14 15.34 -14 14.68 -14 14 C-14.66 13.67 -15.32 13.34 -16 13 C-13 13 -13 13 -10 15 C-9.7226499 11.81509993 -9.7226499 11.81509993 -12 9 C-11.34 8.67 -10.68 8.34 -10 8 C-10 8.66 -10 9.32 -10 10 C-9.34 10 -8.68 10 -8 10 C-8.268125 9.46375 -8.53625 8.9275 -8.8125 8.375 C-9 6 -9 6 -6.8125 2.75 C-4 0 -4 0 0 0 Z M-16 18 C-15 20 -15 20 -15 20 Z " fill="#FEFEFE" transform="translate(512,186)"/>
<path d="M0 0 C3.24104957 1.88570157 5.33261924 3.29407484 6.73046875 6.8671875 C7.48471745 10.7056413 7.1270939 13.40486028 5.3125 16.875 C3.08302168 19.88780854 2.34476386 20.74647789 -1 22 C-4.12303656 22.21443385 -6.99385827 21.87310734 -10 21 C-12.665631 18.40100977 -14.91690987 15.83882074 -15.08984375 12.01171875 C-14.79578488 7.52543602 -14.40584595 5.4850354 -11.4375 1.9375 C-7.33862935 -0.37277255 -4.58765195 -1.11271081 0 0 Z " fill="#FAF0F6" transform="translate(373,153)"/>
<path d="M0 0 C0.99 1.32 1.98 2.64 3 4 C1.68 5.32 0.36 6.64 -1 8 C0.60021643 12.15858715 3.64893607 14.76702246 6.875 17.6875 C7.40480469 18.18572266 7.93460937 18.68394531 8.48046875 19.19726562 C12.22732555 22.63601909 12.22732555 22.63601909 17 24 C17.09982178 24.5887793 17.19964355 25.17755859 17.30249023 25.78417969 C18.13083282 28.4156243 19.19241512 29.53856606 21.16015625 31.453125 C21.78857422 32.071875 22.41699219 32.690625 23.06445312 33.328125 C23.72380859 33.96234375 24.38316406 34.5965625 25.0625 35.25 C25.72572266 35.8996875 26.38894531 36.549375 27.07226562 37.21875 C28.70829317 38.8194676 30.35090912 40.41276193 32 42 C31.360625 42.12375 30.72125 42.2475 30.0625 42.375 C29.381875 42.58125 28.70125 42.7875 28 43 C27.505 43.99 27.505 43.99 27 45 C15.45 33.45 3.9 21.9 -8 10 C-5.77502475 5.55004949 -3.55366005 3.39915309 0 0 Z " fill="#792F4C" transform="translate(464,225)"/>
<path d="M0 0 C-0.99 0.33 -1.98 0.66 -3 1 C-3 1.66 -3 2.32 -3 3 C-1.68 3.33 -0.36 3.66 1 4 C-0.39798828 4.03867188 -0.39798828 4.03867188 -1.82421875 4.078125 C-13.59724447 4.60189965 -26.52308849 5.83407845 -35 15 C-39.02690831 21.20520667 -40.14629692 27.01390099 -40.5234375 34.30859375 C-41.05433064 37.30683454 -42.00490678 38.74351757 -44 41 C-44.05449228 38.16640156 -44.09390733 35.33387515 -44.125 32.5 C-44.14175781 31.70851562 -44.15851562 30.91703125 -44.17578125 30.1015625 C-44.21989226 24.72001921 -43.50594058 20.17000073 -42 15 C-41.34 15 -40.68 15 -40 15 C-39.93619141 13.88044922 -39.93619141 13.88044922 -39.87109375 12.73828125 C-38.63211236 8.84354603 -36.59090914 8.11323103 -33.0625 6.1875 C-31.98097656 5.58292969 -30.89945313 4.97835937 -29.78515625 4.35546875 C-27 3 -27 3 -25 3 C-24.67 2.34 -24.34 1.68 -24 1 C-16.20805868 -0.5762324 -7.90729994 -0.11314102 0 0 Z " fill="#70243E" transform="translate(51,185)"/>
<path d="M0 0 C1.37478516 0.01740234 1.37478516 0.01740234 2.77734375 0.03515625 C3.69644531 0.04417969 4.61554687 0.05320313 5.5625 0.0625 C6.27277344 0.07410156 6.98304687 0.08570313 7.71484375 0.09765625 C9.31600543 4.9011413 9.32654835 10.26254245 7.71484375 15.09765625 C5.07484375 14.76765625 2.43484375 14.43765625 -0.28515625 14.09765625 C-0.61515625 14.75765625 -0.94515625 15.41765625 -1.28515625 16.09765625 C-0.29515625 15.76765625 0.69484375 15.43765625 1.71484375 15.09765625 C4.90234375 16.03515625 4.90234375 16.03515625 7.71484375 17.09765625 C7.71484375 17.75765625 7.71484375 18.41765625 7.71484375 19.09765625 C1.88085217 18.84345182 -2.02779886 18.48402447 -6.28515625 14.09765625 C-8.4655372 10.82708482 -8.9176238 9.89246156 -8.28515625 6.09765625 C-5.84765625 3.34765625 -5.84765625 3.34765625 -3.28515625 1.09765625 C-2.28515625 0.09765625 -2.28515625 0.09765625 0 0 Z " fill="#782641" transform="translate(37.28515625,206.90234375)"/>
<path d="M0 0 C0.68835938 0.00451172 1.37671875 0.00902344 2.0859375 0.01367188 C3.76566335 0.02533664 5.44534375 0.04326729 7.125 0.0625 C7.125 1.0525 7.125 2.0425 7.125 3.0625 C1.845 3.0625 -3.435 3.0625 -8.875 3.0625 C-8.875 3.7225 -8.875 4.3825 -8.875 5.0625 C-10.66272827 5.62674683 -10.66272827 5.62674683 -12.48657227 6.20239258 C-17.02226594 7.91104558 -19.79808943 10.34283151 -23.08984375 13.82421875 C-23.63105362 14.37487503 -24.17226349 14.92553131 -24.72987366 15.49287415 C-26.43642104 17.23370598 -28.12481259 18.99089651 -29.8125 20.75 C-31.52865738 22.51608894 -33.24834783 24.27863467 -34.97010803 26.03926086 C-36.03588054 27.13149922 -37.09772075 28.22759083 -38.15525818 29.32780457 C-39.37662952 30.5909003 -40.62325027 31.82950308 -41.875 33.0625 C-42.205 33.0625 -42.535 33.0625 -42.875 33.0625 C-43.28052453 29.26673488 -43.24158325 27.56906674 -40.96655273 24.42529297 C-40.08942627 23.56049316 -39.2122998 22.69569336 -38.30859375 21.8046875 C-37.60102684 21.09918259 -37.60102684 21.09918259 -36.87916565 20.37942505 C-35.8798701 19.38916922 -34.8733157 18.40619176 -33.86010742 17.43017578 C-32.3261027 15.95061988 -30.81717673 14.44877574 -29.31054688 12.94140625 C-19.90892252 3.63863188 -13.43393909 -0.16922598 0 0 Z " fill="#7E2D4B" transform="translate(488.875,186.9375)"/>
<path d="M0 0 C6.88131516 5.63106191 13.05818358 11.94634904 19.3125 18.25 C20.419687 19.36221303 21.52710709 20.47419407 22.63476562 21.5859375 C24.65158667 23.61087895 26.66713507 25.63706649 28.6809082 27.66503906 C30.11832637 29.11229323 31.55765545 30.55765545 33 32 C30.35261084 33.4606285 29.10551666 34 26 34 C24.4375 32.5625 24.4375 32.5625 23 31 C22.34 30.67 21.68 30.34 21 30 C20.71398926 29.24565674 20.42797852 28.49131348 20.13330078 27.71411133 C18.82739282 24.58662774 17.28161529 22.9376375 14.8671875 20.57421875 C14.06152344 19.77822266 13.25585938 18.98222656 12.42578125 18.16210938 C11.58402344 17.34548828 10.74226563 16.52886719 9.875 15.6875 C9.02550781 14.85154297 8.17601562 14.01558594 7.30078125 13.15429688 C5.20712859 11.0959305 3.10679176 9.04490197 1 7 C0.01 7.495 0.01 7.495 -1 8 C-1 7.01 -1 6.02 -1 5 C-0.01 5 0.98 5 2 5 C1.34 3.35 0.68 1.7 0 0 Z " fill="#7E2D51" transform="translate(446,249)"/>
<path d="M0 0 C2.03653865 1.83288478 3.21390985 3.38503773 4.5625 5.8125 C9.33053739 13.10052674 18.8902021 16.18578812 27 18 C29.3388695 18.42677046 31.63434433 18.74286351 34 19 C34.495 20.98 34.495 20.98 35 23 C26.43750515 23.4211063 18.43710954 22.2687501 11 17.75 C9.515 16.88375 9.515 16.88375 8 16 C7.01 16.33 6.02 16.66 5 17 C1 12.25 1 12.25 1 10 C0.649375 9.4225 0.29875 8.845 -0.0625 8.25 C-1.32612842 5.2172918 -0.71481819 3.14520005 0 0 Z " fill="#753C4F" transform="translate(10,225)"/>
<path d="M0 0 C3.60654039 2.40436026 3.85452932 3.94679607 5 8 C4.01 8 3.02 8 2 8 C2.02320313 8.81984375 2.04640625 9.6396875 2.0703125 10.484375 C2.08835937 11.56203125 2.10640625 12.6396875 2.125 13.75 C2.14820313 14.81734375 2.17140625 15.8846875 2.1953125 16.984375 C2.00322356 19.95022828 1.63578192 21.55204664 0 24 C-0.66 24.33 -1.32 24.66 -2 25 C-2.4683265 27.58605332 -2.4683265 27.58605332 -2.625 30.5625 C-2.69976562 31.57441406 -2.77453125 32.58632813 -2.8515625 33.62890625 C-2.90054687 34.41136719 -2.94953125 35.19382812 -3 36 C-3.66 36 -4.32 36 -5 36 C-5.12400035 31.67677539 -5.21452256 27.35450398 -5.2746582 23.0300293 C-5.29973644 21.56044475 -5.33380856 20.09098413 -5.37719727 18.62182617 C-5.43815499 16.50408319 -5.46627316 14.38799424 -5.48828125 12.26953125 C-5.51446533 10.99698486 -5.54064941 9.72443848 -5.56762695 8.41333008 C-4.8590824 4.15261552 -3.26869557 2.70770145 0 0 Z " fill="#9F025B" transform="translate(443,246)"/>
<path d="M0 0 C3.63 0 7.26 0 11 0 C11 12.21 11 24.42 11 37 C10.505 35.515 10.505 35.515 10 34 C9.34 34 8.68 34 8 34 C7.67 34.66 7.34 35.32 7 36 C7 25.44 7 14.88 7 4 C4.36 4 1.72 4 -1 4 C-0.67 2.68 -0.34 1.36 0 0 Z " fill="#7E1941" transform="translate(431,149)"/>
<path d="M0 0 C0.763125 0.515625 1.52625 1.03125 2.3125 1.5625 C3.199375 2.036875 4.08625 2.51125 5 3 C5.99 2.67 6.98 2.34 8 2 C7.67 5.3 7.34 8.6 7 12 C0.1640625 12.9765625 0.1640625 12.9765625 -2 13 C-2.66 12.34 -3.32 11.68 -4 11 C-2.88820837 14.33537489 -1.52588702 15.63707344 1 18 C0.34 19.32 -0.32 20.64 -1 22 C-2.1055189 21.06409496 -3.20935453 20.12620142 -4.3125 19.1875 C-4.92738281 18.66542969 -5.54226563 18.14335937 -6.17578125 17.60546875 C-7.85424679 16.12827531 -9.43882034 14.59960869 -11 13 C-9.50902342 9.2047869 -7.24299151 7.38957269 -4 5 C-3.34 5.66 -2.68 6.32 -2 7 C-1.67 6.01 -1.34 5.02 -1 4 C-0.34 4 0.32 4 1 4 C1 3.34 1 2.68 1 2 C0.34 1.67 -0.32 1.34 -1 1 C-0.67 0.67 -0.34 0.34 0 0 Z M-1 8 C-1.33 8.99 -1.66 9.98 -2 11 C-1.34 11 -0.68 11 0 11 C-0.33 10.01 -0.66 9.02 -1 8 Z " fill="#FDFCFD" transform="translate(473,222)"/>
<path d="M0 0 C-1.62221845 3.83433451 -3.63014593 7.49133086 -7 10 C-9.82133389 10.69905454 -12.60329467 11.06779022 -15.484375 11.44140625 C-19.00601998 12.22338642 -20.03390063 14.0872602 -22 17 C-26.38585061 19.04673029 -30.20233099 19.19190676 -35 19 C-28.55274422 11.87293154 -18.38304595 7.53935933 -9.8125 3.5 C-9.06983887 3.14977783 -8.32717773 2.79955566 -7.56201172 2.4387207 C-2.26962564 0 -2.26962564 0 0 0 Z " fill="#831440" transform="translate(170,47)"/>
<path d="M0 0 C1.65 0.33 3.3 0.66 5 1 C5.09982178 1.5887793 5.19964355 2.17755859 5.30249023 2.78417969 C6.13083282 5.4156243 7.19241512 6.53856606 9.16015625 8.453125 C10.1027832 9.38125 10.1027832 9.38125 11.06445312 10.328125 C11.72380859 10.96234375 12.38316406 11.5965625 13.0625 12.25 C13.72572266 12.8996875 14.38894531 13.549375 15.07226562 14.21875 C16.70829317 15.8194676 18.35090912 17.41276193 20 19 C19.360625 19.12375 18.72125 19.2475 18.0625 19.375 C17.381875 19.58125 16.70125 19.7875 16 20 C15.67 20.66 15.34 21.32 15 22 C9.39 16.39 3.78 10.78 -2 5 C-1.01 4.67 -0.02 4.34 1 4 C0.67 2.68 0.34 1.36 0 0 Z " fill="#8F4663" transform="translate(476,248)"/>
<path d="M0 0 C0.95199108 3.38966521 1.07772072 5.58721772 0 9 C-0.99 9.66 -1.98 10.32 -3 11 C-3.72382467 13.05925139 -3.72382467 13.05925139 -4 15 C-4.66 15 -5.32 15 -6 15 C-6.99 15.33 -7.98 15.66 -9 16 C-9.28875 16.66 -9.5775 17.32 -9.875 18 C-11 20 -11 20 -13.625 20.75 C-14.40875 20.8325 -15.1925 20.915 -16 21 C-16.72631836 19.25683594 -16.72631836 19.25683594 -17 17 C-15.55297852 14.98535156 -15.55297852 14.98535156 -13.37890625 12.890625 C-12.60869141 12.13652344 -11.83847656 11.38242188 -11.04492188 10.60546875 C-10.22572266 9.82816406 -9.40652344 9.05085937 -8.5625 8.25 C-7.74716797 7.45722656 -6.93183594 6.66445312 -6.09179688 5.84765625 C-4.07189608 3.88681688 -2.04127872 1.9385351 0 0 Z " fill="#782543" transform="translate(482,207)"/>
<path d="M0 0 C1.32 0 2.64 0 4 0 C4.15855469 0.58007812 4.31710938 1.16015625 4.48046875 1.7578125 C6.12851687 7.27558687 8.03581766 10.82153753 12 15 C11.67 15.66 11.34 16.32 11 17 C6.71 17 2.42 17 -2 17 C-2 14.36 -2 11.72 -2 9 C-0.35 9 1.3 9 3 9 C2.01 6.03 1.02 3.06 0 0 Z " fill="#FBFBFB" transform="translate(2,265)"/>
<path d="M0 0 C1.32 0.99 2.64 1.98 4 3 C4.33 2.01 4.66 1.02 5 0 C7.64 0 10.28 0 13 0 C13.16789126 2.43742131 13.33436133 4.87492546 13.5 7.3125 C13.54769531 8.00279297 13.59539062 8.69308594 13.64453125 9.40429688 C13.83879489 12.27662359 14 15.12013788 14 18 C11.65041409 15.76646507 9.32346594 13.51066957 7 11.25 C6.33226562 10.61578125 5.66453125 9.9815625 4.9765625 9.328125 C4.34492188 8.709375 3.71328125 8.090625 3.0625 7.453125 C2.47597656 6.88754883 1.88945312 6.32197266 1.28515625 5.73925781 C0 4 0 4 0 0 Z " fill="#FFFFFF" transform="translate(483,250)"/>
<path d="M0 0 C0.14285714 8.57142857 0.14285714 8.57142857 -1 12 C-8.36603774 11.39622642 -8.36603774 11.39622642 -11 9.75 C-12.37055727 7.35152478 -12.34819167 5.71589501 -12 3 C-8.48214012 -0.51785988 -4.80656342 -0.10924008 0 0 Z " fill="#F9F7F9" transform="translate(46,210)"/>
<path d="M0 0 C0.66 0 1.32 0 2 0 C4.90111275 5.70963679 5.51967545 10.38499302 5.5 16.75 C5.52835937 17.59949219 5.55671875 18.44898438 5.5859375 19.32421875 C5.58851563 20.14019531 5.59109375 20.95617187 5.59375 21.796875 C5.60083984 22.53260742 5.60792969 23.26833984 5.61523438 24.02636719 C5 26 5 26 0 29 C0 19.43 0 9.86 0 0 Z " fill="#9B0C4F" transform="translate(440,194)"/>
<path d="M0 0 C3.79160297 -0.05786668 7.58309311 -0.09355054 11.375 -0.125 C12.45523437 -0.14175781 13.53546875 -0.15851563 14.6484375 -0.17578125 C15.6796875 -0.18222656 16.7109375 -0.18867188 17.7734375 -0.1953125 C19.20308838 -0.21102295 19.20308838 -0.21102295 20.66162109 -0.22705078 C23 0 23 0 25 2 C20.25 7.875 20.25 7.875 18 9 C18.66 10.65 19.32 12.3 20 14 C19.01 14 18.02 14 17 14 C15 11 15 11 14 6 C8.39 5.67 2.78 5.34 -3 5 C-3 4.67 -3 4.34 -3 4 C2.28 4 7.56 4 13 4 C13 3.01 13 2.02 13 1 C8.71 1 4.42 1 0 1 C0 0.67 0 0.34 0 0 Z " fill="#996C7D" transform="translate(483,186)"/>
<path d="M0 0 C0.99 0 1.98 0 3 0 C3 0.66 3 1.32 3 2 C3.99 2 4.98 2 6 2 C6 1.34 6 0.68 6 0 C9.27964898 0.49194735 12.39470654 1.10983138 15.59375 2 C20.37552875 3.21086978 25.08651791 3.4438578 30 3.625 C30.87011719 3.66367187 31.74023438 3.70234375 32.63671875 3.7421875 C34.75750486 3.83540887 36.87872185 3.91874136 39 4 C39 4.33 39 4.66 39 5 C37.39318359 5.07347656 37.39318359 5.07347656 35.75390625 5.1484375 C34.35674361 5.22345294 32.9596095 5.2990013 31.5625 5.375 C30.85544922 5.4059375 30.14839844 5.436875 29.41992188 5.46875 C27.60760812 5.57280629 25.80182012 5.77919892 24 6 C23.67 6.66 23.34 7.32 23 8 C16.03512076 7.66833908 10.22481512 7.24209121 4 4 C3.195625 3.608125 2.39125 3.21625 1.5625 2.8125 C1.046875 2.544375 0.53125 2.27625 0 2 C0 1.34 0 0.68 0 0 Z " fill="#985B70" transform="translate(14,280)"/>
<path d="M0 0 C1.07610988 3.22832965 0.93935312 3.9001347 0 7 C-0.69145079 9.53531955 -1 11.3294087 -1 14 C-0.01 14 0.98 14 2 14 C3.3440093 15.99284138 4.67541292 17.99419671 6 20 C7.91326277 21.81924494 9.90622947 23.38208641 12 25 C11.67 25.99 11.34 26.98 11 28 C10.01 28 9.02 28 8 28 C8 27.34 8 26.68 8 26 C7.1646875 25.9071875 7.1646875 25.9071875 6.3125 25.8125 C2.27736061 24.39474832 -0.26921017 21.47909859 -2.140625 17.69140625 C-3.09563706 14.70048213 -3.20043584 12.31808735 -3.125 9.1875 C-3.10695313 8.21167969 -3.08890625 7.23585938 -3.0703125 6.23046875 C-3.04710937 5.49441406 -3.02390625 4.75835937 -3 4 C-2.34 4 -1.68 4 -1 4 C-0.67 2.68 -0.34 1.36 0 0 Z " fill="#833852" transform="translate(9,254)"/>
<path d="M0 0 C-0.5260925 3.78786597 -1.38103911 6.17152224 -4 9 C-4.66 9 -5.32 9 -6 9 C-6 10.32 -6 11.64 -6 13 C-7.98 13.66 -9.96 14.32 -12 15 C-12 15.66 -12 16.32 -12 17 C-13.65 17 -15.3 17 -17 17 C-15.62694425 12.506363 -13.72179536 10.76970817 -10 8 C-7.71830265 5.77262878 -5.48514077 3.52107713 -3.3125 1.1875 C-2 0 -2 0 0 0 Z " fill="#860A3E" transform="translate(112,85)"/>
<path d="M0 0 C2.21484375 -0.29296875 2.21484375 -0.29296875 5 0 C7.31640625 2.01171875 7.31640625 2.01171875 9.5625 4.6875 C10.67818359 5.99267578 10.67818359 5.99267578 11.81640625 7.32421875 C13.89399928 9.87010646 15.95573439 12.42728478 18 15 C15.08878612 15.40652086 12.89978866 15.59796082 10.37988281 13.92333984 C8.71124927 12.40989229 7.16282252 10.83353967 5.625 9.1875 C5.07972656 8.64029297 4.53445313 8.09308594 3.97265625 7.52929688 C0 3.42222744 0 3.42222744 0 0 Z " fill="#833051" transform="translate(492,268)"/>
<path d="M0 0 C0.66 0 1.32 0 2 0 C2 0.66 2 1.32 2 2 C2.66 2 3.32 2 4 2 C4 2.66 4 3.32 4 4 C4.66 4 5.32 4 6 4 C6 5.32 6 6.64 6 8 C6.66 8 7.32 8 8 8 C8 8.66 8 9.32 8 10 C9.32 10 10.64 10 12 10 C12 11.32 12 12.64 12 14 C13.32 14 14.64 14 16 14 C16 14.66 16 15.32 16 16 C21.28 16 26.56 16 32 16 C26.09524377 18.95237811 20.12527568 18.93100811 13.8125 16.9375 C8.03343998 14.45741756 4.18453101 10.02516592 1.0625 4.6875 C0 2 0 2 0 0 Z " fill="#81153D" transform="translate(110,250)"/>
<path d="M0 0 C0.33 0.66 0.66 1.32 1 2 C0.67 2.99 0.34 3.98 0 5 C-0.07051114 7.73865287 -0.09357765 10.45027588 -0.0625 13.1875 C-0.05798828 13.93708984 -0.05347656 14.68667969 -0.04882812 15.45898438 C-0.03706354 17.30602383 -0.01912865 19.15302213 0 21 C1.28446919 18.43106162 1.32977144 16.23423663 1.5625 13.375 C1.64628906 12.37210938 1.73007813 11.36921875 1.81640625 10.3359375 C1.87699219 9.56507813 1.93757812 8.79421875 2 8 C2.33 8 2.66 8 3 8 C3.02722517 10.20826378 3.04649729 12.41662638 3.0625 14.625 C3.07410156 15.85476562 3.08570313 17.08453125 3.09765625 18.3515625 C3 22 3 22 2.43359375 25.2734375 C1.77171798 28.08398125 1.77171798 28.08398125 3 31 C0 30 0 30 -0.84716797 28.37695312 C-1.55092852 26.09039725 -2.23928691 23.80659993 -2.875 21.5 C-3.1026001 20.68007568 -3.3302002 19.86015137 -3.56469727 19.01538086 C-4.90667923 13.68821535 -5.43876458 9.75188183 -3.02734375 4.62890625 C-2.04382983 3.06949445 -1.02267595 1.53401392 0 0 Z " fill="#AB8692" transform="translate(8,203)"/>
<path d="M0 0 C0 1.98 0 3.96 0 6 C-1.65 6 -3.3 6 -5 6 C-5 6.66 -5 7.32 -5 8 C-10.63433678 10.40929552 -15.8689111 10.23079831 -21.875 10.125 C-22.84953125 10.11597656 -23.8240625 10.10695313 -24.828125 10.09765625 C-27.21900728 10.07421623 -29.60937261 10.04140442 -32 10 C-32 9.67 -32 9.34 -32 9 C-30.87722656 8.90203125 -29.75445312 8.8040625 -28.59765625 8.703125 C-20.47847612 7.92076095 -13.16610693 7.2125088 -6 3 C-5.01 2.4225 -4.02 1.845 -3 1.25 C-1 0 -1 0 0 0 Z " fill="#7E2446" transform="translate(157,276)"/>
<path d="M0 0 C-0.99 0.33 -1.98 0.66 -3 1 C-3 1.66 -3 2.32 -3 3 C-1.68 3.33 -0.36 3.66 1 4 C-0.01320313 4.06058594 -1.02640625 4.12117187 -2.0703125 4.18359375 C-3.42188514 4.26806704 -4.77344709 4.35271157 -6.125 4.4375 C-7.12273438 4.49647461 -7.12273438 4.49647461 -8.140625 4.55664062 C-12.15018817 4.812152 -16.04994196 5.26782413 -20 6 C-20.33 4.68 -20.66 3.36 -21 2 C-13.94887561 -0.21211746 -7.35342179 -0.20177072 0 0 Z " fill="#712942" transform="translate(51,185)"/>
<path d="M0 0 C-1.61270545 3.81184924 -3.69224365 7.45617785 -7 10 C-10.00707168 10.78204045 -12.89986201 10.98649177 -16 11 C-16 9.68 -16 8.36 -16 7 C-13.71070947 5.82845707 -11.41881638 4.66261926 -9.125 3.5 C-8.47402344 3.16613281 -7.82304687 2.83226562 -7.15234375 2.48828125 C-2.2265625 0 -2.2265625 0 0 0 Z " fill="#8B1E49" transform="translate(170,47)"/>
<path d="M0 0 C3.60654039 2.40436026 3.85452932 3.94679607 5 8 C4.01 8 3.02 8 2 8 C2.020625 9.27875 2.04125 10.5575 2.0625 11.875 C2.125 15.75 2.125 15.75 1 18 C0.34 18 -0.32 18 -1 18 C-1.33 15.03 -1.66 12.06 -2 9 C-2.33 9 -2.66 9 -3 9 C-3.36923077 3.46153846 -3.36923077 3.46153846 -1.5 1.125 C-1.005 0.75375 -0.51 0.3825 0 0 Z " fill="#880C48" transform="translate(443,246)"/>
<path d="M0 0 C0.67095703 0.58007812 0.67095703 0.58007812 1.35546875 1.171875 C1.96003906 1.69265625 2.56460937 2.2134375 3.1875 2.75 C3.82300781 3.30042969 4.45851563 3.85085937 5.11328125 4.41796875 C6.64489089 5.7022377 8.25090395 6.89738762 9.875 8.0625 C12.36709699 10.33470608 12.72441636 11.69299629 13 15 C7.62510061 14.35049377 5.25163149 11.94119226 1.60546875 8.14453125 C0 6 0 6 -0.5 2.5 C-0.335 1.675 -0.17 0.85 0 0 Z " fill="#8D405E" transform="translate(464,237)"/>
<path d="M0 0 C1.9375 1.875 1.9375 1.875 3 4 C3 4.66 3 5.32 3 6 C-0.37462715 5.45276317 -2.08235 4.9451 -5 3 C-6.81242323 7.0188515 -8.33501617 10.61110675 -9 15 C-9.66 15 -10.32 15 -11 15 C-11.625 12.125 -11.625 12.125 -12 9 C-11.34 8.34 -10.68 7.68 -10 7 C-9.835 5.989375 -9.67 4.97875 -9.5 3.9375 C-9.335 2.968125 -9.17 1.99875 -9 1 C-5.9167365 -0.54163175 -3.39121901 -0.29747535 0 0 Z " fill="#72213C" transform="translate(19,253)"/>
<path d="M0 0 C1.32 0.33 2.64 0.66 4 1 C4.33 2.32 4.66 3.64 5 5 C3.3970947 5.81498562 1.79262722 6.62689927 0.1875 7.4375 C-1.15248047 8.11619141 -1.15248047 8.11619141 -2.51953125 8.80859375 C-5 10 -5 10 -8 11 C-8 10.01 -8 9.02 -8 8 C-8.66 7.67 -9.32 7.34 -10 7 C-8.71186658 6.16121545 -7.41936744 5.32913217 -6.125 4.5 C-5.40570312 4.0359375 -4.68640625 3.571875 -3.9453125 3.09375 C-2 2 -2 2 0 2 C0 1.34 0 0.68 0 0 Z " fill="#87475C" transform="translate(26,186)"/>
<path d="M0 0 C5.00890086 0.61512818 10.00632136 1.2717552 15 2 C15.33 3.32 15.66 4.64 16 6 C9.54107286 6.40368295 4.93891422 5.5915262 -1 3 C-0.67 2.01 -0.34 1.02 0 0 Z " fill="#73384C" transform="translate(29,242)"/>
<path d="M0 0 C0.69738281 0.00451172 1.39476562 0.00902344 2.11328125 0.01367188 C3.82555803 0.0253998 5.53779033 0.04333347 7.25 0.0625 C7.25 1.0525 7.25 2.0425 7.25 3.0625 C1.97 3.0625 -3.31 3.0625 -8.75 3.0625 C-8.75 3.7225 -8.75 4.3825 -8.75 5.0625 C-11.06 5.3925 -13.37 5.7225 -15.75 6.0625 C-15.09 5.7325 -14.43 5.4025 -13.75 5.0625 C-13.46125 4.4025 -13.1725 3.7425 -12.875 3.0625 C-11.75 1.0625 -11.75 1.0625 -10.1640625 0.44140625 C-6.7758774 -0.09039627 -3.41874841 -0.04200731 0 0 Z " fill="#6E213D" transform="translate(488.75,186.9375)"/>
<path d="M0 0 C0.33 1.32 0.66 2.64 1 4 C2.98 4 4.96 4 7 4 C5 6 5 6 2.4609375 6.265625 C-3.71681283 6.23434525 -9.08789739 5.81910849 -15 4 C-11.79989612 2.1866078 -8.86716157 1.47786026 -5.25 0.875 C-4.26515625 0.70742188 -3.2803125 0.53984375 -2.265625 0.3671875 C-1.51796875 0.24601562 -0.7703125 0.12484375 0 0 Z " fill="#84425A" transform="translate(47,262)"/>
<path d="M0 0 C0.99 0.66 1.98 1.32 3 2 C3 2.66 3 3.32 3 4 C2.01 4.66 1.02 5.32 0 6 C-0.72382467 8.05925139 -0.72382467 8.05925139 -1 10 C-1.66 10 -2.32 10 -3 10 C-6.11332248 10.66868314 -6.11332248 10.66868314 -7.1875 13.0625 C-7.455625 13.701875 -7.72375 14.34125 -8 15 C-9.32 14.67 -10.64 14.34 -12 14 C-10.35 12.02 -8.7 10.04 -7 8 C-6.01 8.33 -5.02 8.66 -4 9 C-4.268125 8.443125 -4.53625 7.88625 -4.8125 7.3125 C-4.874375 6.549375 -4.93625 5.78625 -5 5 C-2.5625 2.25 -2.5625 2.25 0 0 Z " fill="#AE758A" transform="translate(479,212)"/>
<path d="M0 0 C4.37859255 0.50522222 6.81651224 3.17827222 10 6 C6.375 9 6.375 9 3 9 C1.4375 7.5625 1.4375 7.5625 0 6 C-0.66 5.67 -1.32 5.34 -2 5 C-2 4.01 -2 3.02 -2 2 C-1.34 2 -0.68 2 0 2 C0 1.34 0 0.68 0 0 Z " fill="#914564" transform="translate(469,274)"/>
<path d="M0 0 C0.13501894 2.43934225 0.23403897 4.87124104 0.3125 7.3125 C0.35439453 8.00279297 0.39628906 8.69308594 0.43945312 9.40429688 C0.48828125 11.42578125 0.48828125 11.42578125 0 15 C-2.51953125 16.98046875 -2.51953125 16.98046875 -5 18 C-4.89171875 16.91332031 -4.89171875 16.91332031 -4.78125 15.8046875 C-4.30592078 10.85334145 -3.86538002 5.98093926 -4 1 C-1 0 -1 0 0 0 Z " fill="#940243" transform="translate(445,205)"/>
<path d="M0 0 C2.18092036 2.07858979 3.96390469 4.21856618 5.6875 6.6875 C6.12449219 7.31011719 6.56148437 7.93273437 7.01171875 8.57421875 C7.33785156 9.04472656 7.66398437 9.51523438 8 10 C7.34 11.32 6.68 12.64 6 14 C0.06719368 9.6284585 0.06719368 9.6284585 -1 6 C-0.625 2.75 -0.625 2.75 0 0 Z " fill="#692D42" transform="translate(10,225)"/>
<path d="M0 0 C-0.55479057 3.84885956 -2.24418315 5.59260518 -5 8.25 C-5.721875 8.95640625 -6.44375 9.6628125 -7.1875 10.390625 C-9 12 -9 12 -10 12 C-10.3125 9.3125 -10.3125 9.3125 -10 6 C-7.10223905 2.47569614 -4.78737767 0 0 0 Z " fill="#741E3A" transform="translate(456,208)"/>
<path d="M0 0 C0.66 0 1.32 0 2 0 C2.08112454 2.58396679 2.14054748 5.16537568 2.1875 7.75 C2.21263672 8.47960937 2.23777344 9.20921875 2.26367188 9.9609375 C2.30981636 13.34486604 2.25324128 15.57858557 0.48828125 18.515625 C-0.00285156 19.00546875 -0.49398438 19.4953125 -1 20 C-1.02689449 17.04160645 -1.04678741 14.08345573 -1.0625 11.125 C-1.07087891 10.28324219 -1.07925781 9.44148437 -1.08789062 8.57421875 C-1.09111328 7.76855469 -1.09433594 6.96289062 -1.09765625 6.1328125 C-1.10289307 5.38918457 -1.10812988 4.64555664 -1.11352539 3.87939453 C-1 2 -1 2 0 0 Z " fill="#6C1F39" transform="translate(8,206)"/>
<path d="M0 0 C5.28 0 10.56 0 16 0 C15.01 0.495 15.01 0.495 14 1 C14 1.66 14 2.32 14 3 C9.05 3 4.1 3 -1 3 C-0.67 2.01 -0.34 1.02 0 0 Z " fill="#6F1E39" transform="translate(38,285)"/>
<path d="M0 0 C0.33 0 0.66 0 1 0 C1 3.3 1 6.6 1 10 C1.66 10 2.32 10 3 10 C3.33 9.34 3.66 8.68 4 8 C3.67 10.64 3.34 13.28 3 16 C1.68 16.33 0.36 16.66 -1 17 C-1.02684679 14.35409986 -1.04676357 11.70846904 -1.0625 9.0625 C-1.07087891 8.30775391 -1.07925781 7.55300781 -1.08789062 6.77539062 C-1.09652441 4.85005687 -1.05224333 2.92464419 -1 1 C-0.67 0.67 -0.34 0.34 0 0 Z " fill="#9B1656" transform="translate(441,254)"/>
<path d="M0 0 C4.37859255 0.50522222 6.81651224 3.17827222 10 6 C9.67 6.99 9.34 7.98 9 9 C8.01 9 7.02 9 6 9 C6 8.34 6 7.68 6 7 C5.38125 6.87625 4.7625 6.7525 4.125 6.625 C2 6 2 6 0 4 C0 2.68 0 1.36 0 0 Z " fill="#7B364E" transform="translate(11,273)"/>
<path d="M0 0 C0.99 0.66 1.98 1.32 3 2 C3 2.66 3 3.32 3 4 C1.4375 5.1875 1.4375 5.1875 -1 6 C-4.75 4.625 -4.75 4.625 -8 3 C-8 2.01 -8 1.02 -8 0 C-4.65649854 -1.11450049 -3.33342063 -0.91669067 0 0 Z " fill="#A1154F" transform="translate(67,188)"/>
<path d="M0 0 C1.32 0 2.64 0 4 0 C7 3.21428571 7 3.21428571 7 6 C3.7 6 0.4 6 -3 6 C-3.33 4.35 -3.66 2.7 -4 1 C-2.68 1.33 -1.36 1.66 0 2 C0 1.34 0 0.68 0 0 Z " fill="#BB94A1" transform="translate(11,248)"/>
<path d="M0 0 C5.3592233 0.46601942 5.3592233 0.46601942 7.875 2.5625 C8.431875 3.2740625 8.431875 3.2740625 9 4 C8.67 4.66 8.34 5.32 8 6 C6.68 5.34 5.36 4.68 4 4 C3.01 5.485 3.01 5.485 2 7 C1.34 7 0.68 7 0 7 C0 7.66 0 8.32 0 9 C-0.66 8.67 -1.32 8.34 -2 8 C-1.125 1.125 -1.125 1.125 0 0 Z " fill="#9A6075" transform="translate(484,205)"/>
<path d="M0 0 C3.63 0 7.26 0 11 0 C10.01 0.495 10.01 0.495 9 1 C9 1.99 9 2.98 9 4 C5.7 4 2.4 4 -1 4 C-0.67 2.68 -0.34 1.36 0 0 Z " fill="#6B2545" transform="translate(431,149)"/>
<path d="M0 0 C4.31392226 0.4793247 6.16569547 1.7457985 9 5 C8.67 5.66 8.34 6.32 8 7 C3.68607774 6.5206753 1.83430453 5.2542015 -1 2 C-0.67 1.34 -0.34 0.68 0 0 Z " fill="#A51148" transform="translate(303,219)"/>
<path d="M0 0 C1.32 0 2.64 0 4 0 C4 0.66 4 1.32 4 2 C9.28 2 14.56 2 20 2 C14.11299603 4.94350198 8.68034913 4.73940666 2.375 3 C1.59125 2.67 0.8075 2.34 0 2 C0 1.34 0 0.68 0 0 Z " fill="#90425F" transform="translate(122,264)"/>
<path d="M0 0 C0.33 0 0.66 0 1 0 C2.0735426 10.5309417 2.0735426 10.5309417 -0.55859375 14.1328125 C-2.30978411 15.59155055 -4.03123619 16.85490268 -6 18 C-6 16.68 -6 15.36 -6 14 C-2.78571429 11 -2.78571429 11 0 11 C-0.185625 10.113125 -0.37125 9.22625 -0.5625 8.3125 C-0.98042484 5.14821189 -0.80777742 3.05160358 0 0 Z " fill="#A01E57" transform="translate(445,209)"/>
<path d="M0 0 C3.96 1.98 3.96 1.98 8 4 C8 4.66 8 5.32 8 6 C6.3125 7.1875 6.3125 7.1875 4 8 C1.25 6.625 1.25 6.625 -1 5 C-0.34 4.67 0.32 4.34 1 4 C0.67 2.68 0.34 1.36 0 0 Z " fill="#844158" transform="translate(21,255)"/>
<path d="M0 0 C2.3828125 -0.29296875 2.3828125 -0.29296875 5.125 -0.1875 C6.03507812 -0.16042969 6.94515625 -0.13335937 7.8828125 -0.10546875 C8.58148438 -0.07066406 9.28015625 -0.03585938 10 0 C10 0.99 10 1.98 10 3 C6.04 3 2.08 3 -2 3 C-1.34 2.01 -0.68 1.02 0 0 Z " fill="#6D233C" transform="translate(35,207)"/>
<path d="M0 0 C0.66 0 1.32 0 2 0 C2 0.99 2 1.98 2 3 C2.66 3 3.32 3 4 3 C4 3.66 4 4.32 4 5 C4.99 5 5.98 5 7 5 C7.33 6.32 7.66 7.64 8 9 C5 9 5 9 3.39453125 7.6875 C2.87246094 7.130625 2.35039062 6.57375 1.8125 6 C1.28269531 5.443125 0.75289063 4.88625 0.20703125 4.3125 C-0.19128906 3.879375 -0.58960938 3.44625 -1 3 C-0.67 2.01 -0.34 1.02 0 0 Z " fill="#6E2241" transform="translate(457,232)"/>
<path d="M0 0 C0.99 0 1.98 0 3 0 C3 0.66 3 1.32 3 2 C3.99 2 4.98 2 6 2 C6 1.34 6 0.68 6 0 C6.99 0 7.98 0 9 0 C9 0.66 9 1.32 9 2 C9.66 2.33 10.32 2.66 11 3 C9.68 3.99 8.36 4.98 7 6 C3.535 4.02 3.535 4.02 0 2 C0 1.34 0 0.68 0 0 Z " fill="#A67B8A" transform="translate(14,280)"/>
<path d="M0 0 C1.65 0.33 3.3 0.66 5 1 C5.33 2.65 5.66 4.3 6 6 C4.68 6 3.36 6 2 6 C1.67 6.66 1.34 7.32 1 8 C0.01 6.68 -0.98 5.36 -2 4 C-1.01 4 -0.02 4 1 4 C0.67 2.68 0.34 1.36 0 0 Z " fill="#AE7E91" transform="translate(476,248)"/>
<path d="M0 0 C2.64 0.33 5.28 0.66 8 1 C7.38125 1.20625 6.7625 1.4125 6.125 1.625 C3.15346355 3.54775888 2.86975341 5.66594527 2 9 C1.67 9 1.34 9 1 9 C1 7.35 1 5.7 1 4 C-1.51083114 5.25541557 -1.87125446 6.50063488 -3 9 C-3.26218749 5.85375007 -3.24754367 4.38162983 -1.5 1.6875 C-1.005 1.130625 -0.51 0.57375 0 0 Z " fill="#8A4A5F" transform="translate(32,209)"/>
<path d="M0 0 C1 2 1 2 0.44140625 3.8828125 C0.15136719 4.62273437 -0.13867188 5.36265625 -0.4375 6.125 C-2.04827624 10.64249519 -2.26008961 14.23169044 -2 19 C-2.33 19 -2.66 19 -3 19 C-4.58783869 14.81296041 -5.52412233 11.5097229 -4.01953125 7.17578125 C-2.76731154 4.71694088 -1.45732993 2.34248669 0 0 Z " fill="#F5F2F3" transform="translate(8,203)"/>
<path d="M0 0 C1.79068573 2.6860286 2.66055791 4.6626589 3.625 7.6875 C3.88539062 8.49574219 4.14578125 9.30398438 4.4140625 10.13671875 C4.60742188 10.75160156 4.80078125 11.36648438 5 12 C4.01 12 3.02 12 2 12 C-1.57142857 4.71428571 -1.57142857 4.71428571 0 0 Z " fill="#9D175E" transform="translate(91,254)"/>
<path d="M0 0 C0.99 0.33 1.98 0.66 3 1 C2.75 2.8125 2.75 2.8125 2 5 C0 6.5 0 6.5 -2 8 C-2.79623822 10.09415804 -2.79623822 10.09415804 -3 12 C-3.66 11.67 -4.32 11.34 -5 11 C-4.67 9.35 -4.34 7.7 -4 6 C-3.34 6 -2.68 6 -2 6 C-1.855625 5.195625 -1.71125 4.39125 -1.5625 3.5625 C-1 1 -1 1 0 0 Z " fill="#AC808E" transform="translate(13,194)"/>
<path d="M0 0 C0.57234375 0.22558594 1.1446875 0.45117188 1.734375 0.68359375 C0.744375 2.16859375 0.744375 2.16859375 -0.265625 3.68359375 C-0.925625 3.35359375 -1.585625 3.02359375 -2.265625 2.68359375 C-2.595625 3.01359375 -2.925625 3.34359375 -3.265625 3.68359375 C-5.703125 5.30859375 -5.703125 5.30859375 -8.265625 6.68359375 C-8.925625 6.35359375 -9.585625 6.02359375 -10.265625 5.68359375 C-9.02827516 4.64746342 -7.77517863 3.63011573 -6.515625 2.62109375 C-5.81953125 2.05261719 -5.1234375 1.48414062 -4.40625 0.8984375 C-2.265625 -0.31640625 -2.265625 -0.31640625 0 0 Z " fill="#87264B" transform="translate(133.265625,68.31640625)"/>
<path d="M0 0 C0.99 0.66 1.98 1.32 3 2 C3 2.66 3 3.32 3 4 C2.34 4 1.68 4 1 4 C1 4.66 1 5.32 1 6 C0.34 6 -0.32 6 -1 6 C-1.33 6.99 -1.66 7.98 -2 9 C-2.33 9 -2.66 9 -3 9 C-3.36923077 3.46153846 -3.36923077 3.46153846 -1.5 1.125 C-1.005 0.75375 -0.51 0.3825 0 0 Z " fill="#970A44" transform="translate(443,246)"/>
<path d="M0 0 C0.99 0.99 1.98 1.98 3 3 C0.94766315 5.2477975 -0.00667261 6.0022242 -3 7 C-4.32 5.35 -5.64 3.7 -7 2 C-5.02 2.99 -5.02 2.99 -3 4 C-2.34 3.01 -1.68 2.02 -1 1 C-0.67 0.67 -0.34 0.34 0 0 Z " fill="#A98591" transform="translate(18,235)"/>
<path d="M0 0 C0 3.86695678 -1.41909971 6.5088452 -3 10 C-3.33 9.34 -3.66 8.68 -4 8 C-5.32 8.33 -6.64 8.66 -8 9 C-7.04270084 7.87411986 -6.08412105 6.7493285 -5.125 5.625 C-4.59132813 4.99851563 -4.05765625 4.37203125 -3.5078125 3.7265625 C-2.38567993 2.44163349 -1.20628025 1.20628025 0 0 Z " fill="#7E3550" transform="translate(460,200)"/>
<path d="M0 0 C-0.54087318 3.78611227 -2.11722332 5.55400767 -5 8 C-5.66 8 -6.32 8 -7 8 C-6.44414399 4.1090079 -4.34122117 0 0 0 Z " fill="#851041" transform="translate(78,272)"/>
<path d="M0 0 C0.99 0.66 1.98 1.32 3 2 C2 5 2 5 -0.9375 6.75 C-2.4534375 7.36875 -2.4534375 7.36875 -4 8 C-4.66 7.67 -5.32 7.34 -6 7 C-4.02 4.69 -2.04 2.38 0 0 Z " fill="#97204F" transform="translate(94,101)"/>
<path d="M0 0 C0.33 0 0.66 0 1 0 C1.20674944 5.78898419 0.59162079 10.42932723 -1 16 C-1.33 16 -1.66 16 -2 16 C-2.05449838 14.27119018 -2.09301688 12.54187288 -2.125 10.8125 C-2.14820313 9.84957031 -2.17140625 8.88664062 -2.1953125 7.89453125 C-1.9913544 4.87187222 -1.26874632 2.73230015 0 0 Z " fill="#7E0B41" transform="translate(442,266)"/>
<path d="M0 0 C0.33 0.66 0.66 1.32 1 2 C3.52733235 2.65555119 3.52733235 2.65555119 6 3 C6.33 4.32 6.66 5.64 7 7 C2.25 6.25 2.25 6.25 0 4 C0 2.68 0 1.36 0 0 Z " fill="#7D2346" transform="translate(470,245)"/>
<path d="M0 0 C1.32 0.33 2.64 0.66 4 1 C3.67 2.98 3.34 4.96 3 7 C1.35 6.67 -0.3 6.34 -2 6 C-2 4.68 -2 3.36 -2 2 C-1.34 2 -0.68 2 0 2 C0 1.34 0 0.68 0 0 Z " fill="#A66A82" transform="translate(469,274)"/>
<path d="M0 0 C0.33 0.66 0.66 1.32 1 2 C2.32 2 3.64 2 5 2 C5 3.65 5 5.3 5 7 C1.63279613 5.60667426 0.0140476 4.0210714 -2 1 C-1.34 0.67 -0.68 0.34 0 0 Z " fill="#872146" transform="translate(117,258)"/>
<path d="M0 0 C1.37562854 1.28965176 2.70766393 2.62689293 4 4 C4 4.66 4 5.32 4 6 C1.625 5.6875 1.625 5.6875 -1 5 C-1.66 4.01 -2.32 3.02 -3 2 C-2.01 1.34 -1.02 0.68 0 0 Z " fill="#782E47" transform="translate(18,253)"/>
<path d="M0 0 C3.63 0 7.26 0 11 0 C10.67 2.64 10.34 5.28 10 8 C8.5393715 5.35261084 8 4.10551666 8 1 C5.36 1 2.72 1 0 1 C0 0.67 0 0.34 0 0 Z " fill="#8C3857" transform="translate(37,206)"/>
<path d="M0 0 C0.66 0.33 1.32 0.66 2 1 C1.375 3.3125 1.375 3.3125 0 6 C-3.0625 7.6875 -3.0625 7.6875 -6 9 C-6.33 9.66 -6.66 10.32 -7 11 C-7.66 10.67 -8.32 10.34 -9 10 C-8.2575 9.278125 -7.515 8.55625 -6.75 7.8125 C-4.30709485 5.31407427 -2.1318953 2.76356798 0 0 Z " fill="#902B51" transform="translate(104,90)"/>
<path d="M0 0 C0.66 0 1.32 0 2 0 C1.67 1.65 1.34 3.3 1 5 C-0.32 5 -1.64 5 -3 5 C-3 5.99 -3 6.98 -3 8 C-3.99 7.67 -4.98 7.34 -6 7 C-5.04882866 5.8274869 -4.08882991 4.66212985 -3.125 3.5 C-2.59132813 2.8503125 -2.05765625 2.200625 -1.5078125 1.53125 C-0.76144531 0.77328125 -0.76144531 0.77328125 0 0 Z " fill="#7D0E39" transform="translate(110,85)"/>
<path d="M0 0 C0.66 0 1.32 0 2 0 C2 0.66 2 1.32 2 2 C2.66 2 3.32 2 4 2 C4 2.66 4 3.32 4 4 C4.66 4 5.32 4 6 4 C6.33 5.32 6.66 6.64 7 8 C4.13792848 6.71700242 1.9754912 5.469364 0 3 C0 2.01 0 1.02 0 0 Z " fill="#7B1F44" transform="translate(462,268)"/>
<path d="M0 0 C2.97 0.33 5.94 0.66 9 1 C9.33 1.99 9.66 2.98 10 4 C7.03 3.67 4.06 3.34 1 3 C0.67 2.01 0.34 1.02 0 0 Z " fill="#701F3B" transform="translate(35,222)"/>
<path d="M0 0 C0 3.51716303 -0.82445585 4.37121748 -3 7 C-2.34 7.33 -1.68 7.66 -1 8 C-2.32 8.99 -3.64 9.98 -5 11 C-5.3125 8.3125 -5.3125 8.3125 -5 5 C-2.5 2.125 -2.5 2.125 0 0 Z " fill="#7D354D" transform="translate(451,209)"/>
<path d="M0 0 C1.65 0.33 3.3 0.66 5 1 C5 1.99 5 2.98 5 4 C1.98968256 4.93423645 1.13349732 5.04449911 -2 4 C-1.34 2.68 -0.68 1.36 0 0 Z " fill="#8C4962" transform="translate(487,202)"/>
<path d="M0 0 C0 0.66 0 1.32 0 2 C-6.28571429 4.42857143 -6.28571429 4.42857143 -10 3 C-6.48812804 0.59185923 -4.27343092 -0.36629408 0 0 Z " fill="#870F3E" transform="translate(152,282)"/>
<path d="M0 0 C2.64 0.99 5.28 1.98 8 3 C7.67 3.66 7.34 4.32 7 5 C4.69 5 2.38 5 0 5 C0 3.33333333 0 1.66666667 0 0 Z " fill="#753047" transform="translate(23,280)"/>
<path d="M0 0 C0.86625 1.11375 0.86625 1.11375 1.75 2.25 C3.72253526 4.66087643 5.76044282 6.84042701 8 9 C5.3364031 8.64005447 3.41816548 8.28838998 1.1875 6.75 C-0.39364795 4.41988723 -0.22337696 2.75498245 0 0 Z " fill="#90144B" transform="translate(254,273)"/>
<path d="M0 0 C1.06739919 3.20219758 1.10959246 3.94862074 0 7 C-1.5625 9.25 -1.5625 9.25 -3 11 C-3 8.69 -3 6.38 -3 4 C-2.34 4 -1.68 4 -1 4 C-0.67 2.68 -0.34 1.36 0 0 Z " fill="#AA7587" transform="translate(9,254)"/>
<path d="M0 0 C0.53625 0.2475 1.0725 0.495 1.625 0.75 C0.625 2.75 0.625 2.75 -1.6875 3.9375 C-4.49489571 4.78624754 -5.676935 4.74928333 -8.375 3.75 C-2.95961538 -0.31153846 -2.95961538 -0.31153846 0 0 Z " fill="#883758" transform="translate(153.375,55.25)"/>
<path d="M0 0 C0.99 0.66 1.98 1.32 3 2 C2.34 3.32 1.68 4.64 1 6 C-0.32 5.67 -1.64 5.34 -3 5 C-1.125 1.125 -1.125 1.125 0 0 Z " fill="#6E2842" transform="translate(496,193)"/>
<path d="M0 0 C2.32472205 2.85306797 3.7508258 5.54074837 5 9 C4.01 9.495 4.01 9.495 3 10 C3 9.01 3 8.02 3 7 C2.34 7 1.68 7 1 7 C-0.0625 4.625 -0.0625 4.625 -1 2 C-0.67 1.34 -0.34 0.68 0 0 Z " fill="#EED3E2" transform="translate(67,325)"/>
<path d="M0 0 C2.86724686 0.57344937 3.8614515 0.8614515 6 3 C5.67 3.66 5.34 4.32 5 5 C4.01 5 3.02 5 2 5 C2 4.34 2 3.68 2 3 C1.01 2.67 0.02 2.34 -1 2 C-0.67 1.34 -0.34 0.68 0 0 Z " fill="#70243E" transform="translate(15,277)"/>
<path d="M0 0 C0.33 0.66 0.66 1.32 1 2 C0.01 2.66 -0.98 3.32 -2 4 C-1.67 4.66 -1.34 5.32 -1 6 C-3.31 6 -5.62 6 -8 6 C-5.63379989 3.38472619 -3.057952 1.73559438 0 0 Z " fill="#893A57" transform="translate(143,60)"/>
<path d="M0 0 C0.99 0 1.98 0 3 0 C4.0625 1.8125 4.0625 1.8125 5 4 C4.67 4.99 4.34 5.98 4 7 C2 5.1875 2 5.1875 0 3 C0 2.01 0 1.02 0 0 Z " fill="#824C5E" transform="translate(11,232)"/>
<path d="M0 0 C2.625 1.25 2.625 1.25 5 3 C5 3.99 5 4.98 5 6 C4.38125 5.649375 3.7625 5.29875 3.125 4.9375 C2.073125 4.4734375 2.073125 4.4734375 1 4 C0.01 4.495 0.01 4.495 -1 5 C-1.33 3.68 -1.66 2.36 -2 1 C-1.34 0.67 -0.68 0.34 0 0 Z " fill="#C4A0AD" transform="translate(487,205)"/>
<path d="M0 0 C0.66 0.33 1.32 0.66 2 1 C1.60196439 3.88575819 1.20990931 4.82189513 -1.0625 6.75 C-1.701875 7.1625 -2.34125 7.575 -3 8 C-2.45276317 4.62537285 -1.9451 2.91765 0 0 Z " fill="#732944" transform="translate(461,200)"/>
<path d="M0 0 C0.33 0 0.66 0 1 0 C1 2.64 1 5.28 1 8 C0.34 8 -0.32 8 -1 8 C-1.33 8.66 -1.66 9.32 -2 10 C-1.125 2.25 -1.125 2.25 0 0 Z " fill="#9A2751" transform="translate(59,158)"/>
<path d="M0 0 C1.65 0 3.3 0 5 0 C4.67 1.32 4.34 2.64 4 4 C2.68 4.33 1.36 4.66 0 5 C0 3.35 0 1.7 0 0 Z " fill="#FFFFFF" transform="translate(484,214)"/>
<path d="M0 0 C0.33 0.99 0.66 1.98 1 3 C0.319375 3.61875 0.319375 3.61875 -0.375 4.25 C-2.05950374 6.06408095 -2.99265971 7.75285627 -4 10 C-4.33 9.01 -4.66 8.02 -5 7 C-4.00390625 5.17578125 -4.00390625 5.17578125 -2.5625 3.3125 C-2.08941406 2.68988281 -1.61632812 2.06726563 -1.12890625 1.42578125 C-0.75636719 0.95527344 -0.38382813 0.48476562 0 0 Z " fill="#E8D6DE" transform="translate(17,198)"/>
<path d="M0 0 C1.5 1.1875 1.5 1.1875 3 3 C3.1875 5.6875 3.1875 5.6875 3 8 C2.34 8 1.68 8 1 8 C0.26919734 6.02253397 -0.39421747 4.01927511 -1 2 C-0.67 1.34 -0.34 0.68 0 0 Z " fill="#A21252" transform="translate(413,122)"/>
<path d="M0 0 C1.98 0 3.96 0 6 0 C6 0.99 6 1.98 6 3 C4.02 3 2.04 3 0 3 C0 2.01 0 1.02 0 0 Z " fill="#71203B" transform="translate(39,245)"/>
<path d="M0 0 C0.99 0.66 1.98 1.32 3 2 C3 2.66 3 3.32 3 4 C1.02 4.99 1.02 4.99 -1 6 C-1.625 4.125 -1.625 4.125 -2 2 C-1.34 1.34 -0.68 0.68 0 0 Z " fill="#A0647A" transform="translate(479,212)"/>
<path d="M0 0 C1.32 0 2.64 0 4 0 C4 1.32 4 2.64 4 4 C2.68 4.33 1.36 4.66 0 5 C0 3.35 0 1.7 0 0 Z " fill="#8E0140" transform="translate(176,196)"/>
<path d="M0 0 C0.99 0.66 1.98 1.32 3 2 C1.68 4.31 0.36 6.62 -1 9 C-2.0326802 6.21176345 -2.04509293 5.1322726 -1.0625 2.25 C-0.711875 1.5075 -0.36125 0.765 0 0 Z " fill="#F4DDDE" transform="translate(76,120)"/>
<path d="M0 0 C0.66 0 1.32 0 2 0 C1.67 1.32 1.34 2.64 1 4 C0.34 4 -0.32 4 -1 4 C-1 4.66 -1 5.32 -1 6 C-1.66 6 -2.32 6 -3 6 C-2.42655063 3.13275314 -2.1385485 2.1385485 0 0 Z " fill="#8D0F42" transform="translate(88,109)"/>
<path d="M0 0 C1.98 0.99 1.98 0.99 4 2 C2.68 2.33 1.36 2.66 0 3 C0 2.01 0 1.02 0 0 Z " fill="#FFFFFF" transform="translate(7,195)"/>
<path d="M0 0 C0.33 0 0.66 0 1 0 C1 2.31 1 4.62 1 7 C0.67 7 0.34 7 0 7 C0 4.69 0 2.38 0 0 Z " fill="#FFFFFF" transform="translate(3,217)"/>
<path d="M0 0 C0.99 0.33 1.98 0.66 3 1 C2.67 1.66 2.34 2.32 2 3 C1.34 2.01 0.68 1.02 0 0 Z " fill="#FFFFFF" transform="translate(475,245)"/>
<path d="M0 0 C0.33 0 0.66 0 1 0 C1 1.65 1 3.3 1 5 C0.67 5 0.34 5 0 5 C0 3.35 0 1.7 0 0 Z " fill="#FFFFFF" transform="translate(15,243)"/>
<path d="" fill="#FFFFFF" transform="translate(0,0)"/>
<path d="" fill="#FFFFFF" transform="translate(0,0)"/>
<path d="M0 0 C0.99 0.495 0.99 0.495 2 1 C1.01 1.495 1.01 1.495 0 2 C0 1.34 0 0.68 0 0 Z " fill="#FFFFFF" transform="translate(493,207)"/>
<path d="" fill="#FFFFFF" transform="translate(0,0)"/>
<path d="M0 0 C2 1 2 1 2 1 Z " fill="#FFFFFF" transform="translate(15,191)"/>
<path d="" fill="#FFFFFF" transform="translate(0,0)"/>
<path d="" fill="#FFFFFF" transform="translate(0,0)"/>
<path d="" fill="#FFFFFF" transform="translate(0,0)"/>
<path d="" fill="#FFFFFF" transform="translate(0,0)"/>
<path d="" fill="#FFFFFF" transform="translate(0,0)"/>
<path d="" fill="#FFFFFF" transform="translate(0,0)"/>
<path d="" fill="#FFFFFF" transform="translate(0,0)"/>
<path d="" fill="#FFFFFF" transform="translate(0,0)"/>
<path d="" fill="#FFFFFF" transform="translate(0,0)"/>
<path d="" fill="#FFFFFF" transform="translate(0,0)"/>
<path d="" fill="#FFFFFF" transform="translate(0,0)"/>
</svg>
